<svg width="32" height="32" viewBox="0 0 32 32" fill="none" xmlns="http://www.w3.org/2000/svg">
<g clip-path="url(#clip0_60_302)">
<path d="M16 32C24.8366 32 32 24.8366 32 16C32 7.16344 24.8366 0 16 0C7.16344 0 0 7.16344 0 16C0 24.8366 7.16344 32 16 32Z" fill="#F0F0F0"/>
<path d="M31.0048 21.5652C31.648 19.8319 32 17.9571 32 16C32 14.0429 31.648 12.1681 31.0048 10.4348H0.995188C0.352063 12.1681 0 14.0429 0 16C0 17.9571 0.352063 19.8319 0.995188 21.5652L16 22.9565L31.0048 21.5652Z" fill="#0052B4"/>
<path d="M15.9999 32C22.8794 32 28.744 27.658 31.0047 21.5652H0.995117C3.2558 27.658 9.12049 32 15.9999 32Z" fill="#D80027"/>
</g>
<defs>
<clipPath id="clip0_60_302">
<rect width="32" height="32" fill="white"/>
</clipPath>
</defs>
</svg>
