<svg width="27" height="33" viewBox="0 0 27 33" fill="none" xmlns="http://www.w3.org/2000/svg">
<mask id="mask0_62_483" style="mask-type:alpha" maskUnits="userSpaceOnUse" x="0" y="0" width="27" height="33">
<path fill-rule="evenodd" clip-rule="evenodd" d="M13.2743 0C18.3419 0 22.5235 3.76014 23.1348 8.6194C24.4132 8.6194 25.4775 9.6207 25.5808 10.9207L26.9307 27.9047C27.1488 30.6496 25.0242 33 22.3249 33H4.62117C1.92187 33 -0.202743 30.6496 0.0154201 27.9047L1.39744 10.5165C1.48262 9.44483 2.35996 8.6194 3.41383 8.6194C4.0251 3.76014 8.20673 0 13.2743 0ZM9.01974 9.88581C8.72052 9.12104 7.99482 8.6194 7.1877 8.6194C7.76316 5.80918 10.2695 3.69403 13.2743 3.69403C16.2791 3.69403 18.7854 5.80918 19.3609 8.6194C18.7938 8.6194 18.2839 8.97186 18.0737 9.50918L15.6188 15.7834C14.845 17.7612 12.1011 17.7612 11.3273 15.7834L9.01974 9.88581Z" fill="#095AE3"/>
</mask>
<g mask="url(#mask0_62_483)">
<rect width="35.0664" height="5.8444" transform="matrix(0.699996 0.714147 -0.699996 0.714147 12.9385 -5.00559)" fill="#8539B2"/>
<rect width="35.0664" height="5.8444" transform="matrix(0.699996 0.714147 -0.699996 0.714147 8.84766 -0.831654)" fill="#A4328B"/>
<rect width="35.0664" height="5.8444" transform="matrix(0.699996 0.714147 -0.699996 0.714147 4.75635 3.34215)" fill="#C32A63"/>
<rect width="35.0664" height="5.8444" transform="matrix(0.699996 0.714147 -0.699996 0.714147 0.665527 7.51583)" fill="#FA1D20"/>
<rect width="35.0664" height="5.8444" transform="matrix(0.699996 0.714147 -0.699996 0.714147 -3.42627 11.6899)" fill="#FC562C"/>
<rect width="35.0664" height="5.8444" transform="matrix(0.699996 0.714147 -0.699996 0.714147 -7.51709 15.8634)" fill="#FC8E3C"/>
</g>
</svg>
