<svg width="18" height="18" viewBox="0 0 18 18" fill="none" xmlns="http://www.w3.org/2000/svg">
<path d="M2.33333 1.5H15.6667C16.127 1.5 16.5001 1.87303 16.5001 2.33323L16.5002 3.65474C16.5003 3.87581 16.4125 4.08782 16.2562 4.24413L10.9107 9.58925C10.7545 9.7455 10.6667 9.9575 10.6667 10.1785V15.4327C10.6667 15.9748 10.1572 16.3727 9.63124 16.2412L7.96457 15.8245C7.59357 15.7318 7.33333 15.3984 7.33333 15.016V10.1785C7.33333 9.9575 7.24553 9.7455 7.08926 9.58925L1.74408 4.24408C1.58779 4.0878 1.5 3.87583 1.5 3.65483V2.33333C1.5 1.8731 1.87309 1.5 2.33333 1.5Z" stroke="black" stroke-width="1.5" stroke-linecap="round" stroke-linejoin="round"/>
</svg>
