<svg width="25" height="24" viewBox="0 0 25 24" fill="none" xmlns="http://www.w3.org/2000/svg">
<g clip-path="url(#clip0_21_76)">
<path d="M15.5 10L20.053 7.724C20.2054 7.64783 20.3748 7.61188 20.545 7.61954C20.7152 7.62721 20.8806 7.67824 21.0256 7.7678C21.1706 7.85736 21.2902 7.98247 21.3733 8.13127C21.4563 8.28006 21.4999 8.44761 21.5 8.618V15.382C21.4999 15.5524 21.4563 15.7199 21.3733 15.8687C21.2902 16.0175 21.1706 16.1426 21.0256 16.2322C20.8806 16.3218 20.7152 16.3728 20.545 16.3805C20.3748 16.3881 20.2054 16.3522 20.053 16.276L15.5 14V10Z" stroke="white" stroke-width="1.2" stroke-linecap="round" stroke-linejoin="round"/>
<path d="M13.5 6H5.5C4.39543 6 3.5 6.89543 3.5 8V16C3.5 17.1046 4.39543 18 5.5 18H13.5C14.6046 18 15.5 17.1046 15.5 16V8C15.5 6.89543 14.6046 6 13.5 6Z" stroke="white" stroke-width="1.2" stroke-linecap="round" stroke-linejoin="round"/>
<path d="M7.5 12H11.5" stroke="white" stroke-width="1.2" stroke-linecap="round" stroke-linejoin="round"/>
<path d="M9.5 10V14" stroke="white" stroke-width="1.2" stroke-linecap="round" stroke-linejoin="round"/>
</g>
<defs>
<clipPath id="clip0_21_76">
<rect width="24" height="24" fill="white" transform="translate(0.5)"/>
</clipPath>
</defs>
</svg>
