<svg width="21" height="29" viewBox="0 0 21 29" fill="none" xmlns="http://www.w3.org/2000/svg">
<path fill-rule="evenodd" clip-rule="evenodd" d="M18.8695 8.94248H12.7336V0.512984C12.7336 0.231508 12.9651 0 13.2466 0H14.1654C14.1676 1.38123 14.7166 2.70593 15.6942 3.68401C16.6744 4.66148 17.9991 5.21066 19.3824 5.21066V8.94256H18.8695V8.94248ZM19.3825 11.918C19.3825 15.4336 18.5795 18.0534 16.9726 19.7608C15.3664 21.4683 12.8855 22.3198 9.54008 22.3198C6.41314 22.3198 4.04152 21.4683 2.42445 19.7608C0.807531 18.0534 0 15.4798 0 12.0375V0.489778C0 0.220601 0.218511 0 0.489776 0H6.15843C6.42761 0.00216579 6.64883 0.220679 6.64883 0.489778V12.29C6.64883 13.6944 6.90942 14.7774 7.43694 15.5386C8.25515 16.6216 9.71868 16.9834 10.9444 16.4067C11.3395 16.2199 11.6868 15.9466 11.9602 15.6079C12.4774 14.891 12.7336 13.8375 12.7336 12.4412V10.2338H19.3825V11.918Z" fill="white"/>
<path fill-rule="evenodd" clip-rule="evenodd" d="M15.4736 0H18.8696C19.1532 0 19.3826 0.231508 19.3826 0.512984V3.91335C17.2252 3.91335 15.4736 2.16386 15.4736 0.00433157V0Z" fill="#F4821F"/>
<path fill-rule="evenodd" clip-rule="evenodd" d="M1.11213 27.93C1.86312 27.93 2.22473 27.5113 2.22473 26.8976V25.4196H1.6887V26.8825C1.6887 27.6545 0.531779 27.6545 0.531779 26.8825V25.4196H0V26.9019C7.73497e-05 27.5075 0.361841 27.93 1.11213 27.93ZM5.46685 27.8838V27.423H4.27666L5.44148 25.84V25.4196H3.58926V25.8819H4.75407L3.58926 27.4591V27.8838H5.46685ZM7.97537 27.93C8.40644 27.9381 8.80588 27.7051 9.00776 27.3224L8.55395 27.1055C8.44256 27.3224 8.21965 27.4613 7.97305 27.4634C7.28139 27.4296 6.94941 26.5989 7.42681 26.0961C7.56944 25.9449 7.76754 25.8544 7.97305 25.8442C8.21965 25.8486 8.44256 25.9868 8.55395 26.2039L9.00776 25.981C8.80588 25.6004 8.40644 25.3668 7.97537 25.3792C7.04841 25.3523 6.40301 26.2944 6.76199 27.1503C6.96812 27.6357 7.44986 27.9446 7.97537 27.93ZM12.5614 27.8838L11.6108 25.4196H10.9552L10.0003 27.8838H10.5994L10.7533 27.4672H11.8127L11.9645 27.8838H12.5614ZM11.6679 27.0048H10.8981L11.2831 25.9449L11.6679 27.0048ZM16.1066 28.5039L15.2024 26.9461C15.5344 26.8658 15.7616 26.5569 15.7406 26.2162C15.7574 25.756 15.3709 25.3835 14.9123 25.4216H13.7581V27.8859H14.2836V27.009H14.6684L15.5034 28.5018L16.1046 28.5039H16.1066ZM14.8347 26.5483H14.2856V25.884H14.8347C15.0323 25.8609 15.2066 26.0143 15.2066 26.2161C15.2066 26.4159 15.0322 26.5714 14.8347 26.5483ZM18.0768 27.8859C18.8487 27.8859 19.3848 27.3978 19.3848 26.6559C19.3848 25.9115 18.8487 25.4216 18.0768 25.4216H17.103V27.8859H18.0768ZM18.0768 27.423H17.6289V25.884H18.0768C18.5143 25.8502 18.8798 26.2162 18.8487 26.656C18.8675 27.0888 18.508 27.4463 18.0747 27.4231H18.0768V27.423ZM20.0216 25.3733V25.3791C20.0216 25.7892 19.5274 25.9934 19.2394 25.7053C18.9514 25.4152 19.1555 24.921 19.5635 24.921H20.0216V25.3733Z" fill="white"/>
</svg>
