<svg width="13" height="13" viewBox="0 0 13 13" fill="none" xmlns="http://www.w3.org/2000/svg">
<path d="M6.5002 3.9C5.78222 3.9 5.2002 3.31797 5.2002 2.6C5.2002 1.88203 5.78222 1.3 6.5002 1.3C7.21819 1.3 7.8002 1.88203 7.8002 2.6C7.8002 3.31797 7.21819 3.9 6.5002 3.9Z" fill="white"/>
<path d="M6.5002 7.8C5.78222 7.8 5.2002 7.21799 5.2002 6.5C5.2002 5.78203 5.78222 5.2 6.5002 5.2C7.21819 5.2 7.8002 5.78203 7.8002 6.5C7.8002 7.21799 7.21819 7.8 6.5002 7.8Z" fill="white"/>
<path d="M6.5002 11.7C5.78222 11.7 5.2002 11.118 5.2002 10.4C5.2002 9.68201 5.78222 9.1 6.5002 9.1C7.21819 9.1 7.8002 9.68201 7.8002 10.4C7.8002 11.118 7.21819 11.7 6.5002 11.7Z" fill="white"/>
</svg>
