<svg width="31" height="27" viewBox="0 0 31 27" fill="none" xmlns="http://www.w3.org/2000/svg">
<path d="M13.4933 14.9445C13.5781 16.2089 13.6629 16.8834 12.6445 17.9793C11.6263 19.0754 8.91059 21.1828 6.11 22.7847C5.00698 23.4592 3.73404 24.0492 2.37608 24.6392L2.20651 24.7237C1.35772 25.0608 0.593958 25.1453 0.169564 24.555C0.0847811 24.3863 0 24.1334 0 23.9649C0 23.7963 0.0847811 23.5434 0.169564 23.3747C1.10313 20.7612 3.90349 15.956 5.68584 12.7525L6.27981 11.8251C9.0804 7.01967 12.7293 1.20271 13.4933 0.275293C13.5781 0.106845 13.7479 -0.061843 13.9175 0.0223814C14.0025 0.106844 14.0873 0.191069 14.0873 0.275293V0.359755C14.0873 0.359755 14.0025 0.528204 14.0025 0.612666C12.8144 5.50232 12.8992 10.2233 13.4933 14.9445ZM14.2568 19.244C15.2752 18.485 15.8693 18.148 17.3118 18.485C18.7545 18.8224 21.9791 20.1712 24.7798 21.6887C26.1376 22.4475 27.3256 23.2903 28.429 24.1335L28.344 24.0491C29.0229 24.6393 29.5321 25.2294 29.1928 25.9039C28.9382 26.241 28.5985 26.4097 28.1744 26.4942C25.4588 26.9155 19.8578 27 16.2087 27H15.1054C9.58945 27 2.63055 26.7469 1.44263 26.5784C1.27282 26.5784 1.01823 26.4942 1.01823 26.241C1.01823 25.9881 1.1878 25.9881 1.27282 25.9881L1.52741 25.9039C6.36471 24.4708 10.4379 22.0259 14.2568 19.244ZM17.567 16.4616C16.379 15.9558 15.7848 15.6186 15.3604 14.1855C14.9363 12.7523 14.5119 9.38033 14.5119 6.17659C14.5119 6.09237 14.5119 6.00814 14.5119 5.92368C14.5119 4.49044 14.5967 3.05731 14.8513 1.62431V1.79276C15.0211 0.86534 15.2757 0.191188 15.9546 0.191188C16.379 0.191188 16.7184 0.444098 16.9729 0.781233C18.755 2.88887 21.5556 7.69406 23.4224 10.8133L24.0166 11.825C26.8169 16.6304 30.0417 22.7003 30.4661 23.7964C30.5508 23.9648 30.5508 24.2177 30.3813 24.3022C30.3813 24.3022 30.2965 24.3022 30.2115 24.3022C30.1267 24.3022 30.0417 24.3022 29.9569 24.2177L29.7871 24.0493C26.1383 20.5928 21.98 18.3163 17.567 16.4616Z" fill="white"/>
</svg>
