<svg width="24" height="24" viewBox="0 0 24 24" fill="none" xmlns="http://www.w3.org/2000/svg">
<g clip-path="url(#clip0_90_249)">
<path d="M0.566625 8.34788C0.199031 9.4995 -4.68667e-05 10.7264 8.276e-09 11.9999C-4.68667e-05 13.2735 0.199078 14.5005 0.566672 15.6521L12 16.1739L23.4333 15.6522C23.8009 14.5005 24 13.2735 24 12C24 10.7264 23.8009 9.4995 23.4333 8.34783L12 7.82611L0.566625 8.34788Z" fill="#F0F0F0"/>
<path d="M23.4332 8.34788L11.9999 7.82616L0.5665 8.34788C0.457562 8.68931 0.363766 9.03745 0.285156 9.39136H23.7144C23.6359 9.03741 23.5421 8.68922 23.4332 8.34788Z" fill="#D80027"/>
<path d="M0.285156 14.6086C0.363672 14.9625 0.457469 15.3106 0.566406 15.6521L0.567531 15.6521L11.9997 16.1738L23.433 15.6521C23.542 15.3107 23.6357 14.9625 23.7143 14.6086H0.285156Z" fill="#D80027"/>
<path d="M12.0002 24C17.3541 24 21.8883 20.4936 23.4335 15.6521H0.566895C2.11213 20.4935 6.64644 24 12.0002 24V24Z" fill="#6DA544"/>
<path d="M11.9997 4.57768e-05C6.64595 9.26518e-05 2.11173 3.50648 0.566406 8.34787L23.433 8.34792C21.8879 3.50644 17.3536 -1.09817e-06 11.9997 4.57768e-05V4.57768e-05Z" fill="#338AF3"/>
<path d="M5.48376 4.95658C5.48376 3.83265 6.27365 2.89375 7.32848 2.6634C7.16638 2.62797 6.99815 2.6088 6.82537 2.6088C5.52871 2.6088 4.47754 3.65992 4.47754 4.95662C4.47754 6.25333 5.52862 7.30445 6.82537 7.30445C6.99815 7.30445 7.16634 7.28523 7.32848 7.24984C6.2737 7.0194 5.48376 6.0805 5.48376 4.95658V4.95658Z" fill="#F0F0F0"/>
<path d="M8.71628 6.02377L8.87519 6.51291H9.3895L8.97344 6.81526L9.13234 7.3044L8.71628 7.0021L8.30012 7.3044L8.45908 6.81526L8.04297 6.51291H8.55728L8.71628 6.02377Z" fill="#F0F0F0"/>
<path d="M10.3578 6.02377L10.5167 6.51291H11.0311L10.6149 6.81526L10.7739 7.3044L10.3578 7.0021L9.94168 7.3044L10.1006 6.81526L9.68457 6.51291H10.1988L10.3578 6.02377Z" fill="#F0F0F0"/>
<path d="M11.9995 6.02377L12.1584 6.51291H12.6727L12.2566 6.81526L12.4155 7.3044L11.9995 7.0021L11.5833 7.3044L11.7423 6.81526L11.3262 6.51291H11.8405L11.9995 6.02377Z" fill="#F0F0F0"/>
<path d="M13.6411 6.02377L13.8 6.51291H14.3143L13.8982 6.81526L14.0572 7.3044L13.6411 7.0021L13.2249 7.3044L13.3839 6.81526L12.9678 6.51291H13.4821L13.6411 6.02377Z" fill="#F0F0F0"/>
<path d="M15.2826 6.02377L15.4415 6.51291H15.9559L15.5398 6.81526L15.6987 7.3044L15.2826 7.0021L14.8665 7.3044L15.0254 6.81526L14.6094 6.51291H15.1236L15.2826 6.02377Z" fill="#F0F0F0"/>
<path d="M10.3578 4.31625L10.5167 4.80535H11.0311L10.6149 5.10774L10.7739 5.59683L10.3578 5.29453L9.94168 5.59683L10.1006 5.10774L9.68457 4.80535H10.1988L10.3578 4.31625Z" fill="#F0F0F0"/>
<path d="M11.9995 4.31625L12.1584 4.80535H12.6727L12.2566 5.10774L12.4155 5.59683L11.9995 5.29453L11.5833 5.59683L11.7423 5.10774L11.3262 4.80535H11.8405L11.9995 4.31625Z" fill="#F0F0F0"/>
<path d="M13.6411 4.31625L13.8 4.80535H14.3143L13.8982 5.10774L14.0572 5.59683L13.6411 5.29453L13.2249 5.59683L13.3839 5.10774L12.9678 4.80535H13.4821L13.6411 4.31625Z" fill="#F0F0F0"/>
<path d="M15.2826 4.31625L15.4415 4.80535H15.9559L15.5398 5.10774L15.6987 5.59683L15.2826 5.29453L14.8665 5.59683L15.0254 5.10774L14.6094 4.80535H15.1236L15.2826 4.31625Z" fill="#F0F0F0"/>
<path d="M11.9995 2.60869L12.1584 3.09788H12.6727L12.2566 3.40017L12.4155 3.88936L11.9995 3.58706L11.5833 3.88936L11.7423 3.40017L11.3262 3.09788H11.8405L11.9995 2.60869Z" fill="#F0F0F0"/>
<path d="M13.6411 2.60869L13.8 3.09788H14.3143L13.8982 3.40017L14.0572 3.88936L13.6411 3.58706L13.2249 3.88936L13.3839 3.40017L12.9678 3.09788H13.4821L13.6411 2.60869Z" fill="#F0F0F0"/>
<path d="M15.2826 2.60869L15.4415 3.09788H15.9559L15.5398 3.40017L15.6987 3.88936L15.2826 3.58706L14.8665 3.88936L15.0254 3.40017L14.6094 3.09788H15.1236L15.2826 2.60869Z" fill="#F0F0F0"/>
</g>
<defs>
<clipPath id="clip0_90_249">
<rect width="24" height="24" fill="white"/>
</clipPath>
</defs>
</svg>
