<svg width="24" height="24" viewBox="0 0 24 24" fill="none" xmlns="http://www.w3.org/2000/svg">
<path d="M9 21H7C4.79086 21 3 19.2091 3 17V10.7076C3 9.30884 3.73061 8.01172 4.92679 7.28676L9.92679 4.25646C11.2011 3.48418 12.7989 3.48418 14.0732 4.25646L19.0732 7.28676C20.2694 8.01172 21 9.30884 21 10.7076V17C21 19.2091 19.2091 21 17 21H15M9 21V17C9 15.3431 10.3431 14 12 14C13.6569 14 15 15.3431 15 17V21M9 21H15" stroke="white" stroke-width="1.5" stroke-linecap="round" stroke-linejoin="round"/>
</svg>
