<svg width="46" height="46" viewBox="0 0 46 46" fill="none" xmlns="http://www.w3.org/2000/svg">
<rect width="46" height="46" rx="10" fill="#117FE4"/>
<mask id="mask0_90_696" style="mask-type:alpha" maskUnits="userSpaceOnUse" x="0" y="0" width="46" height="46">
<rect width="46" height="46" rx="10" fill="#1D3573"/>
</mask>
<g mask="url(#mask0_90_696)">
<path d="M-41.3999 39.4012L-38.7166 34.6617C-36.0332 29.8713 -30.6666 20.4686 -25.2999 17.7113C-19.9332 15.0048 -14.5666 19.0709 -9.1999 22.4635C-3.83324 25.8053 1.53343 28.6007 6.9001 29.9095C12.2668 31.2691 17.6334 31.2691 23.0001 27.8764C28.3668 24.5346 33.7334 17.6731 39.1001 13.6452C44.4668 9.54101 49.8334 8.27037 55.2001 12.9718C60.5668 17.6731 65.9334 28.6007 71.3001 31.2691C76.6668 33.9374 82.0334 28.6007 84.7168 25.8434L87.4001 23.1369V47.5333H84.7168C82.0334 47.5333 76.6668 47.5333 71.3001 47.5333C65.9334 47.5333 60.5668 47.5333 55.2001 47.5333C49.8334 47.5333 44.4668 47.5333 39.1001 47.5333C33.7334 47.5333 28.3668 47.5333 23.0001 47.5333C17.6334 47.5333 12.2668 47.5333 6.9001 47.5333C1.53343 47.5333 -3.83324 47.5333 -9.1999 47.5333C-14.5666 47.5333 -19.9332 47.5333 -25.2999 47.5333C-30.6666 47.5333 -36.0332 47.5333 -38.7166 47.5333H-41.3999V39.4012Z" fill="url(#paint0_linear_90_696)"/>
<path d="M99.6665 37.3538L96.9832 34.5488C94.2998 31.7137 88.9332 26.1487 83.5665 24.5169C78.1998 22.9151 72.8332 25.3215 67.4665 27.3294C62.0998 29.3072 56.7332 30.9616 51.3665 31.7362C45.9998 32.5409 40.6332 32.5409 35.2665 30.533C29.8998 28.5552 24.5332 24.4943 19.1665 22.1104C13.7998 19.6814 8.43317 18.9294 3.06651 21.7119C-2.30016 24.4943 -7.66683 30.9616 -13.0335 32.5409C-18.4002 34.1201 -23.7668 30.9616 -26.4502 29.3298L-29.1335 27.728V42.1667H-26.4502C-23.7668 42.1667 -18.4002 42.1667 -13.0335 42.1667C-7.66683 42.1667 -2.30016 42.1667 3.06651 42.1667C8.43317 42.1667 13.7998 42.1667 19.1665 42.1667C24.5332 42.1667 29.8998 42.1667 35.2665 42.1667C40.6332 42.1667 45.9998 42.1667 51.3665 42.1667C56.7332 42.1667 62.0998 42.1667 67.4665 42.1667C72.8332 42.1667 78.1998 42.1667 83.5665 42.1667C88.9332 42.1667 94.2998 42.1667 96.9832 42.1667H99.6665V37.3538Z" fill="url(#paint1_linear_90_696)"/>
</g>
<defs>
<linearGradient id="paint0_linear_90_696" x1="23.0001" y1="9.96666" x2="23.0001" y2="47.5333" gradientUnits="userSpaceOnUse">
<stop stop-color="#4870D6"/>
<stop offset="1" stop-color="#2A3EA6" stop-opacity="0"/>
</linearGradient>
<linearGradient id="paint1_linear_90_696" x1="35.2665" y1="19.9333" x2="35.2665" y2="42.1667" gradientUnits="userSpaceOnUse">
<stop stop-color="#4870D6" stop-opacity="0.46"/>
<stop offset="1" stop-color="#2A3EA6" stop-opacity="0"/>
</linearGradient>
</defs>
</svg>
