<svg width="28" height="28" viewBox="0 0 28 28" fill="none" xmlns="http://www.w3.org/2000/svg">
<path d="M18.8115 7.84277C16.7283 7.84277 15.8479 8.83684 14.3971 8.83684C12.9097 8.83684 11.7751 7.85001 9.96983 7.85001C8.20283 7.85001 6.31855 8.92881 5.12195 10.7666C3.44175 13.3582 3.72695 18.2391 6.44823 22.3973C7.42163 23.8858 8.72157 25.5551 10.4266 25.5732H10.4576C11.9394 25.5732 12.3796 24.6029 14.4188 24.5916H14.4498C16.4586 24.5916 16.8616 25.5675 18.3372 25.5675H18.3682C20.0732 25.5495 21.4429 23.6998 22.4163 22.217C23.1169 21.1506 23.3773 20.6153 23.9147 19.4089C19.9782 17.9147 19.3458 12.3342 23.2389 10.1946C22.0505 8.70664 20.3807 7.84484 18.8064 7.84484L18.8115 7.84277Z" fill="#2D3748"/>
<path d="M18.353 2.42798C17.113 2.5122 15.6663 3.30166 14.819 4.33241C14.0502 5.26654 13.4178 6.65224 13.6658 7.99609H13.765C15.0856 7.99609 16.4372 7.20094 17.2266 6.18208C17.9872 5.21229 18.5638 3.83796 18.353 2.42798Z" fill="#2D3748"/>
</svg>
