<svg width="22" height="22" viewBox="0 0 22 22" fill="none" xmlns="http://www.w3.org/2000/svg">
<path d="M19.6864 9.61911L19.596 9.23551H11.2584V12.7643H16.24C15.7228 15.2203 13.3228 16.5131 11.3624 16.5131C9.93596 16.5131 8.43236 15.9131 7.43716 14.9487C6.91209 14.4318 6.49414 13.8163 6.20724 13.1376C5.92033 12.4589 5.77011 11.7303 5.76516 10.9935C5.76516 9.50711 6.43316 8.02031 7.40516 7.04231C8.37716 6.06432 9.84516 5.51712 11.3048 5.51712C12.9764 5.51712 14.1744 6.40472 14.6224 6.80952L17.13 4.31512C16.3944 3.66872 14.3736 2.03992 11.224 2.03992C8.79396 2.03992 6.46396 2.97072 4.76076 4.66832C3.07996 6.33992 2.20996 8.75711 2.20996 10.9999C2.20996 13.2427 3.03316 15.5391 4.66196 17.2239C6.40236 19.0207 8.86716 19.9599 11.4052 19.9599C13.7144 19.9599 15.9032 19.0551 17.4632 17.4135C18.9968 15.7975 19.79 13.5615 19.79 11.2175C19.79 10.2307 19.6908 9.64471 19.6864 9.61911Z" fill="#2D3748"/>
</svg>
