<svg width="24" height="24" viewBox="0 0 24 24" fill="none" xmlns="http://www.w3.org/2000/svg">
<g clip-path="url(#clip0_41_850)">
<path d="M17.25 23H2.75C1.233 23 0 21.767 0 20.25V11.75C0 10.233 1.233 9 2.75 9H17.25C18.767 9 20 10.233 20 11.75V20.25C20 21.767 18.767 23 17.25 23ZM2.75 10.5C2.061 10.5 1.5 11.061 1.5 11.75V20.25C1.5 20.939 2.061 21.5 2.75 21.5H17.25C17.939 21.5 18.5 20.939 18.5 20.25V11.75C18.5 11.061 17.939 10.5 17.25 10.5H2.75Z" fill="#022964"/>
<path d="M6.25 17H4.75C3.785 17 3 16.215 3 15.25V13.75C3 12.785 3.785 12 4.75 12H6.25C7.215 12 8 12.785 8 13.75V15.25C8 16.215 7.215 17 6.25 17ZM4.75 13.5C4.612 13.5 4.5 13.612 4.5 13.75V15.25C4.5 15.388 4.612 15.5 4.75 15.5H6.25C6.388 15.5 6.5 15.388 6.5 15.25V13.75C6.5 13.612 6.388 13.5 6.25 13.5H4.75Z" fill="#022964"/>
<path d="M16.25 20H3.75C3.336 20 3 19.664 3 19.25C3 18.836 3.336 18.5 3.75 18.5H16.25C16.664 18.5 17 18.836 17 19.25C17 19.664 16.664 20 16.25 20Z" fill="#022964"/>
<path d="M22.75 6.5H5.25C4.836 6.5 4.5 6.164 4.5 5.75C4.5 5.336 4.836 5 5.25 5H22.75C23.164 5 23.5 5.336 23.5 5.75C23.5 6.164 23.164 6.5 22.75 6.5Z" fill="#022964"/>
<path d="M22.25 14.72C21.989 14.72 21.735 14.583 21.597 14.34C21.392 13.98 21.519 13.522 21.879 13.318C22.267 13.098 22.499 12.698 22.499 12.25V3.75C22.499 3.061 21.938 2.5 21.249 2.5H6.75C6.061 2.5 5.5 3.061 5.5 3.75V6.75C5.5 7.164 5.164 7.5 4.75 7.5C4.336 7.5 4 7.164 4 6.75V3.75C4 2.233 5.233 1 6.75 1H21.25C22.767 1 24 2.233 24 3.75V12.25C24 13.231 23.471 14.14 22.62 14.623C22.503 14.689 22.376 14.72 22.25 14.72Z" fill="#022964"/>
</g>
<defs>
<clipPath id="clip0_41_850">
<rect width="24" height="24" fill="white"/>
</clipPath>
</defs>
</svg>
