<svg width="24" height="24" viewBox="0 0 24 24" fill="none" xmlns="http://www.w3.org/2000/svg">
<path d="M2 9H16M2 9V5.6C2 5.26863 2.26863 5 2.6 5H21.4C21.7314 5 22 5.26863 22 5.6V9V18.4C22 18.7314 21.7314 19 21.4 19H2.6C2.26863 19 2 18.7314 2 18.4V9Z" stroke="#929292" stroke-width="1.5" stroke-linecap="round" stroke-linejoin="round"/>
<path d="M18.4 12H15.6C15.2686 12 15 12.2686 15 12.6V15.4C15 15.7314 15.2686 16 15.6 16H18.4C18.7314 16 19 15.7314 19 15.4V12.6C19 12.2686 18.7314 12 18.4 12Z" fill="#929292"/>
</svg>
