<svg width="32" height="32" viewBox="0 0 32 32" fill="none" xmlns="http://www.w3.org/2000/svg">
<g clip-path="url(#clip0_90_406)">
<path d="M16 32C24.8366 32 32 24.8366 32 16C32 7.16344 24.8366 0 16 0C7.16344 0 0 7.16344 0 16C0 24.8366 7.16344 32 16 32Z" fill="#31279D"/>
<path d="M16 6.26086L16.5181 7.85518H18.1943L16.8382 8.84049L17.3562 10.4348L16 9.44943L14.6438 10.4348L15.1619 8.84049L13.8057 7.85518H15.482L16 6.26086Z" fill="#FFDA44"/>
<path d="M9.11315 9.11334L10.6069 9.87434L11.7922 8.68909L11.5299 10.3447L13.0236 11.1058L11.3679 11.368L11.1057 13.0238L10.3446 11.5301L8.68896 11.7924L9.87428 10.6071L9.11315 9.11334Z" fill="#FFDA44"/>
<path d="M6.26074 16L7.85505 15.4819V13.8056L8.8403 15.1619L10.4347 14.6438L9.44924 16L10.4347 17.3562L8.8403 16.8382L7.85505 18.1944V16.518L6.26074 16Z" fill="#FFDA44"/>
<path d="M9.11315 22.8866L9.87422 21.3929L8.68896 20.2076L10.3447 20.4699L11.1056 18.9763L11.3679 20.6319L13.0235 20.8942L11.53 21.6553L11.7922 23.3109L10.6069 22.1256L9.11315 22.8866Z" fill="#FFDA44"/>
<path d="M16 25.7391L15.4819 24.1448H13.8057L15.1619 23.1595L14.6438 21.5653L16 22.5506L17.3562 21.5653L16.8382 23.1595L18.1943 24.1448H16.518L16 25.7391Z" fill="#FFDA44"/>
<path d="M22.8864 22.8866L21.3927 22.1256L20.2073 23.3109L20.4696 21.6552L18.9761 20.8942L20.6317 20.6319L20.8939 18.9763L21.6549 20.4699L23.3106 20.2076L22.1253 21.393L22.8864 22.8866Z" fill="#FFDA44"/>
<path d="M25.7388 16L24.1444 16.518V18.1944L23.1591 16.8381L21.5649 17.3562L22.5503 16L21.5649 14.6438L23.1592 15.1619L24.1444 13.8056V15.482L25.7388 16Z" fill="#FFDA44"/>
<path d="M22.8864 9.11334L22.1253 10.6071L23.3106 11.7924L21.6549 11.53L20.8939 13.0237L20.6317 11.368L18.9761 11.1057L20.4696 10.3447L20.2073 8.68915L21.3928 9.8744L22.8864 9.11334Z" fill="#FFDA44"/>
</g>
<defs>
<clipPath id="clip0_90_406">
<rect width="32" height="32" fill="white"/>
</clipPath>
</defs>
</svg>
