<svg width="18" height="18" viewBox="0 0 18 18" fill="none" xmlns="http://www.w3.org/2000/svg">
<path d="M2.33285 1.5H15.6663C16.1265 1.5 16.4996 1.87303 16.4996 2.33323L16.4998 3.65474C16.4998 3.87581 16.412 4.08782 16.2557 4.24413L10.9103 9.58925C10.754 9.7455 10.6662 9.9575 10.6662 10.1785V15.4327C10.6662 15.9748 10.1567 16.3727 9.63075 16.2412L7.96409 15.8245C7.59309 15.7318 7.33284 15.3984 7.33284 15.016V10.1785C7.33284 9.9575 7.24505 9.7455 7.08877 9.58925L1.74359 4.24408C1.5873 4.0878 1.49951 3.87583 1.49951 3.65483V2.33333C1.49951 1.8731 1.8726 1.5 2.33285 1.5Z" stroke="black" stroke-width="1.5" stroke-linecap="round" stroke-linejoin="round"/>
</svg>
