<svg width="17" height="15" viewBox="0 0 17 15" fill="none" xmlns="http://www.w3.org/2000/svg">
<path d="M15.7594 10.1917L11.0807 2.39375C10.4632 1.36458 9.52902 0.778748 8.49986 0.778748C7.47069 0.778748 6.53652 1.36458 5.91902 2.38583L1.24027 10.1917C0.89194 10.7696 0.717773 11.3712 0.717773 11.9412C0.717773 12.3925 0.828607 12.8358 1.05027 13.2237C1.55694 14.1104 2.53861 14.625 3.74986 14.625H13.2499C14.4611 14.625 15.4428 14.1104 15.9494 13.2237C16.1711 12.8358 16.2819 12.4162 16.2819 11.9729C16.2899 11.3871 16.1157 10.7775 15.7594 10.1917ZM8.49986 4.68958C9.17277 4.68958 9.72694 5.24375 9.72694 5.91666C9.72694 6.58958 9.18069 7.14375 8.49986 7.14375C7.82694 7.14375 7.27277 6.58958 7.27277 5.91666C7.27277 5.23583 7.81902 4.68958 8.49986 4.68958ZM9.83777 11.3871C9.81402 11.4187 9.20444 12.1154 8.19902 12.1154H8.08027C7.67652 12.0917 7.34402 11.9175 7.14611 11.6167C6.90069 11.2446 6.86111 10.7379 7.05111 10.1758L7.37569 9.21C7.55777 8.67166 7.38361 8.58458 7.28861 8.53708L7.17777 8.52125C6.97986 8.52125 6.70277 8.64 6.61569 8.6875C6.53652 8.72708 6.43361 8.71125 6.37027 8.63208C6.31486 8.55291 6.31486 8.45 6.37819 8.37875C6.40194 8.34708 7.06694 7.595 8.13569 7.65833C8.53944 7.68208 8.87194 7.85625 9.06986 8.15708C9.32319 8.52916 9.35486 9.03583 9.16486 9.60583L8.84027 10.5717C8.65819 11.11 8.83236 11.1971 8.92736 11.2446L9.03819 11.2604C9.23611 11.2604 9.51319 11.1417 9.60027 11.1021C9.68736 11.0546 9.78236 11.0783 9.84569 11.1575C9.90111 11.2129 9.90111 11.3158 9.83777 11.3871Z" fill="#FFA318"/>
</svg>
