<svg width="64" height="64" viewBox="0 0 64 64" fill="none" xmlns="http://www.w3.org/2000/svg">
<g clip-path="url(#clip0_38_95)">
<path d="M64 31.9999L56.7549 23.956L57.8893 13.1872L47.2951 10.9444L41.891 1.55652L32.0001 5.97691L22.1091 1.55652L16.705 10.9444L6.11083 13.1872L7.24509 23.956L0 31.9999L7.24497 40.0439L6.11071 50.8126L16.7049 53.0555L22.109 62.4433L31.9999 58.0228L41.8909 62.4433L47.295 53.0555L57.8892 50.8126L56.7548 40.0439L64 31.9999ZM32.0001 53.9106L23.6719 57.6326L19.1226 49.7297L10.1992 47.8405L11.1541 38.7739L5.05304 32.0001L11.1541 25.2262L10.1992 16.1596L19.1226 14.2704L23.6719 6.36752L32.0001 10.0894L40.3281 6.36752L44.8774 14.2704L53.8009 16.1596L52.846 25.2262L58.947 31.9999L52.8459 38.7738L53.8008 47.8403L44.8773 49.7295L40.328 57.6323L32.0001 53.9106Z" fill="#0066FF"/>
<path d="M42.6141 22.493L29.1974 37.5244L20.8454 29.1724L18.1906 31.8273L29.3524 42.9892L45.4152 24.9932L42.6141 22.493Z" fill="#0066FF"/>
</g>
<defs>
<clipPath id="clip0_38_95">
<rect width="64" height="64" fill="white"/>
</clipPath>
</defs>
</svg>
