<svg width="64" height="64" viewBox="0 0 64 64" fill="none" xmlns="http://www.w3.org/2000/svg">
<path d="M59.5059 27.9031C59.2609 20.9221 56.4339 14.3941 51.4699 9.43008C46.2669 4.22608 39.3519 1.36108 31.9999 1.36108C17.1509 1.36108 5.01794 13.1801 4.49494 27.9031C2.22894 28.9101 0.642944 31.1781 0.642944 33.8141V41.0761C0.642944 44.6421 3.54394 47.5441 7.11094 47.5441C9.41894 47.5441 11.2959 45.6671 11.2959 43.3591V31.5301C11.2959 29.3631 9.63394 27.5961 7.52094 27.3861C8.30094 14.5591 18.9789 4.36108 31.9999 4.36108C38.5519 4.36108 44.7129 6.91508 49.3499 11.5521C53.6079 15.8101 56.0999 21.3601 56.4749 27.3871C54.3639 27.5991 52.7049 29.3651 52.7049 31.5301V43.3581C52.7049 45.5431 54.3929 47.3211 56.5309 47.5061V50.4951C56.5309 53.8611 53.7919 56.5991 50.4259 56.5991H45.9049C45.6829 55.9651 45.3349 55.3791 44.8469 54.8931C43.9919 54.0341 42.8519 53.5611 41.6379 53.5611H36.9779C36.3089 53.5611 35.6669 53.7031 35.0789 53.9771C33.4749 54.7141 32.4389 56.3321 32.4389 58.0991C32.4389 59.3131 32.9119 60.4531 33.7689 61.3061C34.6259 62.1651 35.7659 62.6381 36.9779 62.6381H41.6379C43.5699 62.6381 45.2729 61.3891 45.9079 59.5991H50.4259C55.4469 59.5991 59.5309 55.5151 59.5309 50.4951V46.9721C61.7829 45.9591 63.3569 43.6991 63.3569 41.0741V33.8121C63.3569 31.1781 61.7709 28.9101 59.5059 27.9031ZM8.29494 31.5301V43.3581C8.29494 44.0111 7.76394 44.5431 7.10994 44.5431C5.19794 44.5431 3.64194 42.9871 3.64194 41.0751V33.8131C3.64194 31.9001 5.19794 30.3451 7.10994 30.3451C7.76394 30.3451 8.29494 30.8771 8.29494 31.5301ZM43.1429 58.4211C42.9939 59.1271 42.3599 59.6401 41.6369 59.6401H36.9769C36.5669 59.6401 36.1819 59.4801 35.8879 59.1861C35.5979 58.8971 35.4379 58.5111 35.4379 58.1011C35.4379 57.5021 35.7889 56.9551 36.3389 56.7021C36.5349 56.6101 36.7499 56.5631 36.9769 56.5631H41.6369C42.0469 56.5631 42.4319 56.7221 42.7249 57.0161C43.0149 57.3051 43.1749 57.6911 43.1749 58.1011C43.1759 58.2111 43.1639 58.3211 43.1429 58.4211ZM60.3569 41.0751C60.3569 42.9871 58.8009 44.5431 56.8889 44.5431C56.2359 44.5431 55.7039 44.0121 55.7039 43.3581V31.5301C55.7039 30.8771 56.2349 30.3451 56.8889 30.3451C58.8009 30.3451 60.3569 31.9011 60.3569 33.8131V41.0751Z" fill="black"/>
<path d="M41.7129 41.5922C45.2179 41.5922 48.0689 38.7402 48.0689 35.2362V22.2852C48.0689 20.5912 47.4069 18.9952 46.2049 17.7932C45.0029 16.5912 43.4079 15.9292 41.7129 15.9292H22.2869C18.7819 15.9292 15.9309 18.7802 15.9309 22.2852V35.2362C15.9309 38.7412 18.7819 41.5922 22.2869 41.5922H22.4059V44.9482C22.4059 46.2282 23.1689 47.3642 24.3489 47.8432C24.7299 47.9962 25.1259 48.0722 25.5179 48.0722C26.3349 48.0722 27.1309 47.7482 27.7139 47.1452L33.2969 41.5922H41.7129ZM31.6219 39.0282L25.5799 45.0372C25.5529 45.0652 25.5329 45.0862 25.4759 45.0612C25.4069 45.0332 25.4069 44.9882 25.4069 44.9482V40.0922C25.4069 39.2642 24.7359 38.5922 23.9069 38.5922H22.2879C20.4369 38.5922 18.9319 37.0862 18.9319 35.2362V22.2852C18.9319 20.4342 20.4369 18.9292 22.2879 18.9292H41.7139C42.6079 18.9292 43.4489 19.2792 44.0849 19.9142C44.7209 20.5502 45.0699 21.3922 45.0699 22.2852V35.2362C45.0699 37.0872 43.5639 38.5922 41.7139 38.5922H32.6799C32.2829 38.5922 31.9029 38.7492 31.6219 39.0282Z" fill="black"/>
<path d="M24.713 26.7871C23.493 26.7871 22.5 27.7811 22.5 29.0001C22.5 30.2191 23.494 31.2131 24.713 31.2131C25.934 31.2131 26.928 30.2191 26.928 29.0001C26.928 27.7811 25.935 26.7871 24.713 26.7871Z" fill="black"/>
<path d="M31.9989 26.7871C30.7789 26.7871 29.7859 27.7811 29.7859 29.0001C29.7859 30.2191 30.7799 31.2131 31.9989 31.2131C33.2209 31.2131 34.2139 30.2191 34.2139 29.0001C34.2139 27.7811 33.2209 26.7871 31.9989 26.7871Z" fill="black"/>
<path d="M39.2849 26.7871C38.0649 26.7871 37.0719 27.7811 37.0719 29.0001C37.0719 30.2191 38.0659 31.2131 39.2849 31.2131C40.5059 31.2131 41.4999 30.2191 41.4999 29.0001C41.4999 27.7811 40.5059 26.7871 39.2849 26.7871Z" fill="black"/>
</svg>
