<svg width="64" height="64" viewBox="0 0 64 64" fill="none" xmlns="http://www.w3.org/2000/svg">
<g clip-path="url(#clip0_38_116)">
<path d="M10.5165 13.1713C11.2486 13.9036 12.4358 13.9036 13.1681 13.1713C13.9003 12.4389 13.9003 11.2514 13.1681 10.519L9.09559 6.44552C8.36346 5.71315 7.17621 5.71315 6.44396 6.44552C5.71171 7.1779 5.71171 8.3654 6.44396 9.09777L10.5165 13.1713Z" fill="black"/>
<path d="M9.25164 19.9688C9.51801 18.9678 8.92276 17.9404 7.92202 17.674L2.35777 16.1926C1.35727 15.9258 0.32989 16.5216 0.0636402 17.5225C-0.20261 18.5234 0.392515 19.5509 1.39327 19.8173L6.95752 21.2988C7.93114 21.5664 8.98889 20.9779 9.25164 19.9688Z" fill="black"/>
<path d="M17.6695 7.92397C17.9323 8.9331 18.9899 9.52147 19.9636 9.25385C20.9643 8.98747 21.5595 7.9601 21.2933 6.9591L19.8121 1.39335C19.5458 0.392349 18.5184 -0.202651 17.518 0.0634745C16.5174 0.329849 15.9221 1.35722 16.1884 2.35822L17.6695 7.92397Z" fill="black"/>
<path d="M38.5024 25.2258C40.42 23.3077 41.4767 20.7564 41.478 18.0408C41.478 15.3254 40.4212 12.773 38.5024 10.8537C34.541 6.89129 28.0952 6.89116 24.1339 10.8537L20.4216 14.5669C19.6894 15.2993 19.6894 16.4868 20.4216 17.2192C21.154 17.9517 22.341 17.9517 23.0732 17.2192L26.7855 13.5059C29.2847 11.0062 33.3514 11.0059 35.8507 13.5059C37.0612 14.7168 37.7279 16.3273 37.7279 18.0399C37.7271 19.7534 37.0604 21.3635 35.8507 22.5735L32.1385 26.2869C31.4062 27.0194 31.4062 28.2068 32.1385 28.9392C32.5046 29.3054 32.9845 29.4885 33.4642 29.4885C33.944 29.4885 34.424 29.3054 34.79 28.9392L38.5024 25.2258Z" fill="black"/>
<path d="M26.2801 32.147L22.5679 35.8602C20.0686 38.36 16.002 38.3602 13.5026 35.8602C12.2921 34.6493 11.6255 33.0388 11.6255 31.3262C11.6262 29.6128 12.293 28.0026 13.5026 26.7926L17.215 23.0792C17.9471 22.3468 17.9471 21.1593 17.215 20.427C16.4829 19.6946 15.2956 19.6946 14.5634 20.427L10.8511 24.1403C8.93349 26.0585 7.87686 28.6097 7.87561 31.3253C7.87561 34.0407 8.93236 36.5931 10.8511 38.5125C12.7701 40.432 15.3217 41.4891 18.0359 41.489C20.7497 41.4888 23.301 40.4318 25.2196 38.5125L28.9319 34.7992C29.6641 34.0668 29.6641 32.8793 28.9319 32.147C28.1994 31.4143 27.0124 31.4146 26.2801 32.147Z" fill="black"/>
<path d="M31.1794 18.1787C30.4473 17.4463 29.2601 17.4463 28.5278 18.1787L18.1741 28.5352C17.4418 29.2676 17.4418 30.455 18.1741 31.1874C18.5402 31.5535 19.0201 31.7368 19.4998 31.7368C19.9796 31.7368 20.4596 31.5537 20.8256 31.1874L31.1793 20.8309C31.9117 20.0986 31.9117 18.9111 31.1794 18.1787Z" fill="black"/>
<path d="M63.9796 42.2319C63.8686 41.4839 63.3195 40.8757 62.5867 40.6894L36.2694 34.0007C34.9437 33.6203 33.6102 34.955 33.9904 36.2804L40.679 62.6029C41.0257 64.1793 43.3071 64.5233 44.1012 63.1105L47.9011 56.8174L52.3711 60.3063C54.6136 62.056 57.821 61.8589 59.832 59.8474C61.8431 57.8358 62.0402 54.6277 60.2907 52.3847L56.8027 47.9134L63.0944 44.1125C63.7415 43.7215 64.0906 42.98 63.9796 42.2319ZM53.0551 45.7953C52.1079 46.3385 51.8552 47.7089 52.5462 48.5544L57.3341 54.692C57.9209 55.4443 57.8549 56.5204 57.1804 57.195C56.5056 57.8697 55.4299 57.9357 54.678 57.3489L48.542 52.5598C47.6937 51.8679 46.3275 52.1219 45.7836 53.0688L43.2091 57.3327L38.4015 38.4125L57.3177 43.2203L53.0551 45.7953Z" fill="black"/>
</g>
<defs>
<clipPath id="clip0_38_116">
<rect width="64" height="64" fill="white"/>
</clipPath>
</defs>
</svg>
