<svg width="64" height="64" viewBox="0 0 64 64" fill="none" xmlns="http://www.w3.org/2000/svg">
<g clip-path="url(#clip0_38_99)">
<path d="M58.2837 50.5H5.71625C4.20058 50.4983 2.74748 49.8955 1.67581 48.8236C0.604145 47.7518 0.00145583 46.2987 0 44.783L0 12.097C0.00172037 10.5815 0.604519 9.12852 1.67615 8.05689C2.74778 6.98526 4.20073 6.38246 5.71625 6.38074H33.037C33.3685 6.38074 33.6865 6.51243 33.9209 6.74685C34.1553 6.98127 34.287 7.29922 34.287 7.63074C34.287 7.96226 34.1553 8.2802 33.9209 8.51462C33.6865 8.74904 33.3685 8.88074 33.037 8.88074H5.71625C4.86353 8.88166 4.046 9.22082 3.44304 9.82378C2.84008 10.4267 2.50093 11.2443 2.5 12.097V44.783C2.50073 45.6358 2.83979 46.4536 3.44278 47.0567C4.04576 47.6598 4.8634 47.9991 5.71625 48H58.2837C59.1366 47.9991 59.9542 47.6598 60.5572 47.0567C61.1602 46.4536 61.4993 45.6358 61.5 44.783V19.6C61.5 19.2685 61.6317 18.9505 61.8661 18.7161C62.1005 18.4817 62.4185 18.35 62.75 18.35C63.0815 18.35 63.3995 18.4817 63.6339 18.7161C63.8683 18.9505 64 19.2685 64 19.6V44.783C63.9985 46.2987 63.3959 47.7518 62.3242 48.8236C61.2525 49.8955 59.7994 50.4983 58.2837 50.5Z" fill="black"/>
<path d="M41.889 61.742C41.6792 61.7424 41.4727 61.6898 41.2885 61.5894C41.1043 61.4889 40.9483 61.3436 40.835 61.167L33.635 49.924C33.4563 49.6448 33.3957 49.306 33.4668 48.9822C33.5378 48.6584 33.7346 48.376 34.0138 48.1973C34.293 48.0185 34.6318 47.958 34.9556 48.029C35.2794 48.1001 35.5618 48.2968 35.7405 48.576L42.9393 59.8188C43.0604 60.0076 43.1285 60.2255 43.1364 60.4497C43.1443 60.6739 43.0917 60.8961 42.9842 61.093C42.8767 61.2899 42.7181 61.4542 42.5252 61.5687C42.3323 61.6832 42.1121 61.7437 41.8878 61.7438L41.889 61.742Z" fill="black"/>
<path d="M22.111 61.7419C21.8867 61.7418 21.6665 61.6814 21.4736 61.5669C21.2806 61.4524 21.1221 61.2881 21.0146 61.0912C20.907 60.8943 20.8544 60.6721 20.8623 60.4479C20.8703 60.2237 20.9383 60.0058 21.0595 59.8169L28.2595 48.5742C28.4382 48.295 28.7206 48.0982 29.0444 48.0272C29.3683 47.9562 29.707 48.0167 29.9862 48.1954C30.2654 48.3742 30.4622 48.6566 30.5332 48.9804C30.6043 49.3042 30.5437 49.643 30.365 49.9222L23.165 61.1659C23.0518 61.3427 22.8959 61.4882 22.7117 61.5888C22.5275 61.6895 22.3209 61.7422 22.111 61.7419Z" fill="black"/>
<path d="M47.3595 61.873H16.6407C16.3092 61.873 15.9913 61.7413 15.7569 61.5069C15.5224 61.2725 15.3907 60.9546 15.3907 60.623C15.3907 60.2915 15.5224 59.9736 15.7569 59.7392C15.9913 59.5047 16.3092 59.373 16.6407 59.373H47.3595C47.691 59.373 48.009 59.5047 48.2434 59.7392C48.4778 59.9736 48.6095 60.2915 48.6095 60.623C48.6095 60.9546 48.4778 61.2725 48.2434 61.5069C48.009 61.7413 47.691 61.873 47.3595 61.873Z" fill="black"/>
<path d="M31.8572 29.4045C30.4807 29.4045 29.1352 28.9963 27.9907 28.2316C26.8462 27.4669 25.9542 26.3799 25.4275 25.1083C24.9007 23.8366 24.7629 22.4373 25.0314 21.0872C25.3 19.7372 25.9628 18.4972 26.9361 17.5239C27.9094 16.5506 29.1495 15.8877 30.4995 15.6192C31.8495 15.3507 33.2488 15.4885 34.5205 16.0152C35.7922 16.542 36.8791 17.434 37.6438 18.5785C38.4085 19.723 38.8167 21.0685 38.8167 22.445C38.8147 24.2901 38.0808 26.0591 36.7761 27.3638C35.4713 28.6685 33.7024 29.4024 31.8572 29.4045ZM31.8572 17.9855C30.9752 17.9855 30.113 18.247 29.3796 18.737C28.6463 19.2271 28.0747 19.9235 27.7372 20.7384C27.3996 21.5533 27.3113 22.4499 27.4834 23.315C27.6555 24.18 28.0802 24.9746 28.7039 25.5983C29.3275 26.222 30.1221 26.6467 30.9872 26.8188C31.8523 26.9909 32.7489 26.9025 33.5638 26.565C34.3787 26.2275 35.0751 25.6559 35.5651 24.9225C36.0552 24.1892 36.3167 23.327 36.3167 22.445C36.3154 21.2627 35.8451 20.1291 35.0091 19.2931C34.1731 18.4571 33.0395 17.9868 31.8572 17.9855Z" fill="black"/>
<path d="M40.4215 41.3943H23.2932C22.9617 41.3943 22.6438 41.2626 22.4093 41.0282C22.1749 40.7938 22.0432 40.4758 22.0432 40.1443V36.7193C22.0563 34.125 23.0961 31.6415 24.9352 29.8116C26.7742 27.9818 29.263 26.9546 31.8573 26.9546C34.4517 26.9546 36.9404 27.9818 38.7795 29.8116C40.6186 31.6415 41.6584 34.125 41.6715 36.7193V40.1443C41.6715 40.4758 41.5398 40.7938 41.3053 41.0282C41.0709 41.2626 40.753 41.3943 40.4215 41.3943ZM24.5432 38.8943H39.1715V36.7193C39.1602 34.7869 38.3846 32.9375 37.0142 31.575C35.6437 30.2126 33.7898 29.4478 31.8573 29.4478C29.9249 29.4478 28.071 30.2126 26.7005 31.575C25.3301 32.9375 24.5545 34.7869 24.5432 36.7193V38.8943Z" fill="black"/>
<path d="M55.5048 17.975H39.9473C39.2182 17.9742 38.5192 17.6842 38.0036 17.1686C37.488 16.6531 37.1981 15.9541 37.1973 15.225V4.87671C37.1981 4.14761 37.488 3.4486 38.0036 2.93304C38.5192 2.41749 39.2182 2.1275 39.9473 2.12671H55.5048C56.2339 2.1275 56.9329 2.41749 57.4484 2.93304C57.964 3.4486 58.254 4.14761 58.2548 4.87671V15.225C58.254 15.9541 57.964 16.6531 57.4484 17.1686C56.9329 17.6842 56.2339 17.9742 55.5048 17.975ZM39.9473 4.62671C39.881 4.62671 39.8174 4.65305 39.7705 4.69993C39.7236 4.74682 39.6973 4.8104 39.6973 4.87671V15.225C39.6973 15.2913 39.7236 15.3549 39.7705 15.4017C39.8174 15.4486 39.881 15.475 39.9473 15.475H55.5048C55.5711 15.475 55.6347 15.4486 55.6815 15.4017C55.7284 15.3549 55.7548 15.2913 55.7548 15.225V4.87671C55.7548 4.8104 55.7284 4.74682 55.6815 4.69993C55.6347 4.65305 55.5711 4.62671 55.5048 4.62671H39.9473Z" fill="black"/>
<path d="M62.75 15.5167C62.5515 15.5168 62.3558 15.4695 62.1793 15.3787L56.4338 12.4287C56.2293 12.3237 56.0577 12.1643 55.9379 11.9682C55.8181 11.772 55.7548 11.5466 55.7548 11.3167V8.63645C55.7548 8.40219 55.8206 8.17265 55.9448 7.97401C56.069 7.77536 56.2464 7.6156 56.457 7.51295L62.2025 4.71295C62.3932 4.62006 62.6043 4.5772 62.8161 4.58842C63.0279 4.59964 63.2334 4.66457 63.4132 4.77709C63.593 4.88961 63.7412 5.04602 63.8438 5.23161C63.9465 5.4172 64.0002 5.62586 64 5.83795V14.2667C64 14.5982 63.8683 14.9162 63.6339 15.1506C63.3995 15.385 63.0815 15.5167 62.75 15.5167ZM58.2548 10.554L61.5 12.22V7.8367L58.2548 9.41795V10.554Z" fill="black"/>
</g>
<defs>
<clipPath id="clip0_38_99">
<rect width="64" height="64" fill="white"/>
</clipPath>
</defs>
</svg>
