<svg width="64" height="64" viewBox="0 0 64 64" fill="none" xmlns="http://www.w3.org/2000/svg">
<g clip-path="url(#clip0_38_108)">
<path d="M32 45.6985C30.0377 45.6985 28.1194 45.1166 26.4877 44.0264C24.8561 42.9361 23.5844 41.3865 22.8335 39.5736C22.0825 37.7606 21.8861 35.7656 22.2689 33.841C22.6518 31.9164 23.5967 30.1485 24.9844 28.7609C26.372 27.3733 28.1399 26.4284 30.0645 26.0456C31.9892 25.6628 33.9841 25.8593 35.7971 26.6103C37.61 27.3613 39.1596 28.633 40.2498 30.2647C41.3399 31.8963 41.9218 33.8146 41.9218 35.777C41.9187 38.4074 40.8724 40.9293 39.0124 42.7893C37.1523 44.6493 34.6305 45.6955 32 45.6985ZM32 28.3552C30.5321 28.3552 29.0972 28.7905 27.8767 29.606C26.6562 30.4215 25.7049 31.5807 25.1432 32.9368C24.5815 34.293 24.4345 35.7852 24.7209 37.2249C25.0072 38.6646 25.7141 39.987 26.752 41.025C27.79 42.0629 29.1124 42.7698 30.5521 43.0561C31.9918 43.3425 33.484 43.1955 34.8402 42.6338C36.1963 42.0721 37.3554 41.1208 38.171 39.9003C38.9865 38.6798 39.4218 37.2449 39.4218 35.777C39.4195 33.8093 38.6368 31.9229 37.2455 30.5315C35.8541 29.1401 33.9677 28.3575 32 28.3552Z" fill="black"/>
<path d="M45.0075 63.9092H18.9925C18.661 63.9092 18.343 63.7775 18.1086 63.5431C17.8742 63.3087 17.7425 62.9908 17.7425 62.6592V57.456C17.7425 53.6747 19.2446 50.0482 21.9184 47.3744C24.5922 44.7006 28.2187 43.1985 32 43.1985C35.7813 43.1985 39.4078 44.7006 42.0816 47.3744C44.7554 50.0482 46.2575 53.6747 46.2575 57.456V62.6592C46.2575 62.9908 46.1258 63.3087 45.8914 63.5431C45.657 63.7775 45.339 63.9092 45.0075 63.9092ZM20.2425 61.4092H43.7575V57.456C43.7575 54.3377 42.5188 51.3471 40.3138 49.1422C38.1088 46.9372 35.1183 45.6985 32 45.6985C28.8817 45.6985 25.8911 46.9372 23.6862 49.1422C21.4812 51.3471 20.2425 54.3377 20.2425 57.456V61.4092Z" fill="black"/>
<path d="M49.7425 30.2771C47.7802 30.2771 45.8619 29.6953 44.2302 28.6051C42.5985 27.5149 41.3268 25.9654 40.5758 24.1524C39.8248 22.3395 39.6283 20.3445 40.0111 18.4199C40.3939 16.4952 41.3389 14.7273 42.7264 13.3397C44.114 11.9521 45.8819 11.0071 47.8065 10.6243C49.7312 10.2414 51.7261 10.4379 53.5391 11.1888C55.3521 11.9398 56.9016 13.2115 57.9919 14.8431C59.0821 16.4747 59.664 18.393 59.664 20.3553C59.661 22.9858 58.6147 25.5076 56.7547 27.3676C54.8947 29.2277 52.3729 30.274 49.7425 30.2771ZM49.7425 12.9336C48.2746 12.9335 46.8397 13.3688 45.6191 14.1843C44.3986 14.9997 43.4473 16.1589 42.8855 17.515C42.3237 18.8711 42.1767 20.3634 42.4631 21.8031C42.7494 23.2428 43.4563 24.5653 44.4942 25.6032C45.5321 26.6412 46.8546 27.3481 48.2942 27.6345C49.7339 27.9209 51.2262 27.7739 52.5824 27.2122C53.9385 26.6504 55.0977 25.6992 55.9132 24.4787C56.7287 23.2582 57.164 21.8232 57.164 20.3553C57.1618 18.3877 56.3791 16.5013 54.9878 15.11C53.5965 13.7186 51.7101 12.9359 49.7425 12.9336Z" fill="black"/>
<path d="M62.75 48.4874H45.6968C45.3652 48.4874 45.0473 48.3557 44.8129 48.1213C44.5784 47.8869 44.4468 47.5689 44.4468 47.2374C44.4468 46.9059 44.5784 46.5879 44.8129 46.3535C45.0473 46.1191 45.3652 45.9874 45.6968 45.9874H61.5V42.0344C61.4994 39.9809 60.9611 37.9634 59.9387 36.1825C58.9163 34.4016 57.4455 32.9194 55.6725 31.8834C53.8995 30.8474 51.8861 30.2936 49.8327 30.2772C47.7793 30.2608 45.7573 30.7823 43.968 31.7899C43.6794 31.9514 43.3386 31.9921 43.0202 31.9029C42.7017 31.8137 42.4316 31.6019 42.269 31.3139C42.1063 31.026 42.0644 30.6853 42.1524 30.3666C42.2404 30.0478 42.4512 29.7769 42.7385 29.6131C44.9082 28.3907 47.3601 27.7578 49.8504 27.7773C52.3406 27.7968 54.7824 28.468 56.9327 29.7243C59.0829 30.9805 60.8668 32.7779 62.1067 34.9376C63.3466 37.0973 63.9994 39.5441 64 42.0344V47.2374C64 47.5689 63.8683 47.8869 63.6339 48.1213C63.3995 48.3557 63.0815 48.4874 62.75 48.4874Z" fill="black"/>
<path d="M14.2575 30.2771C12.2952 30.2771 10.3769 29.6952 8.74528 28.605C7.11366 27.5148 5.84196 25.9652 5.09101 24.1522C4.34005 22.3393 4.14357 20.3443 4.5264 18.4197C4.90924 16.4951 5.85419 14.7272 7.24177 13.3396C8.62935 11.952 10.3972 11.0071 12.3219 10.6242C14.2465 10.2414 16.2414 10.4379 18.0544 11.1888C19.8674 11.9398 21.4169 13.2115 22.5071 14.8431C23.5974 16.4747 24.1793 18.393 24.1793 20.3553C24.1762 22.9858 23.1299 25.5077 21.2699 27.3677C19.4099 29.2278 16.888 30.2741 14.2575 30.2771ZM14.2575 12.9336C12.7896 12.9336 11.3547 13.3689 10.1342 14.1844C8.9137 14.9999 7.96244 16.159 7.40071 17.5152C6.83897 18.8713 6.692 20.3636 6.97837 21.8033C7.26474 23.2429 7.97159 24.5654 9.00954 25.6033C10.0475 26.6413 11.3699 27.3481 12.8096 27.6345C14.2493 27.9209 15.7415 27.7739 17.0977 27.2122C18.4538 26.6504 19.613 25.6992 20.4285 24.4787C21.244 23.2582 21.6793 21.8232 21.6793 20.3553C21.677 18.3877 20.8944 16.5012 19.503 15.1099C18.1116 13.7185 16.2252 12.9358 14.2575 12.9336Z" fill="black"/>
<path d="M18.3032 48.4874H1.25C0.918479 48.4874 0.600537 48.3557 0.366117 48.1213C0.131696 47.8869 0 47.5689 0 47.2374L0 42.0344C0.000648648 39.5441 0.653403 37.0973 1.89331 34.9376C3.13322 32.7779 4.91706 30.9805 7.06734 29.7243C9.21761 28.468 11.6594 27.7968 14.1496 27.7773C16.6399 27.7578 19.0918 28.3907 21.2615 29.6131C21.5502 29.7762 21.7622 30.0473 21.851 30.3667C21.9398 30.6861 21.8981 31.0277 21.735 31.3164C21.5719 31.605 21.3009 31.8171 20.9814 31.9059C20.662 31.9947 20.3204 31.953 20.0317 31.7899C18.2424 30.7824 16.2205 30.2609 14.1671 30.2774C12.1137 30.2938 10.1004 30.8475 8.32747 31.8836C6.55451 32.9196 5.0837 34.4017 4.06133 36.1826C3.03896 37.9634 2.50067 39.9809 2.5 42.0344V45.9874H18.3032C18.6348 45.9874 18.9527 46.1191 19.1871 46.3535C19.4216 46.5879 19.5532 46.9059 19.5532 47.2374C19.5532 47.5689 19.4216 47.8869 19.1871 48.1213C18.9527 48.3557 18.6348 48.4874 18.3032 48.4874Z" fill="black"/>
<path d="M32 19.929C30.0377 19.929 28.1194 19.3471 26.4878 18.2568C24.8562 17.1666 23.5845 15.6171 22.8335 13.8041C22.0825 11.9911 21.8861 9.9962 22.2689 8.07157C22.6517 6.14693 23.5967 4.37905 24.9843 2.99147C26.3718 1.60389 28.1397 0.65893 30.0644 0.276097C31.989 -0.106736 33.9839 0.0897481 35.7969 0.840702C37.6099 1.59166 39.1594 2.86335 40.2496 4.49497C41.3399 6.1266 41.9218 8.04487 41.9218 10.0072C41.9187 12.6377 40.8724 15.1595 39.0124 17.0196C37.1523 18.8796 34.6305 19.9259 32 19.929ZM32 2.58545C30.5321 2.58545 29.0972 3.02073 27.8767 3.83624C26.6562 4.65176 25.7049 5.81088 25.1432 7.16702C24.5815 8.52317 24.4345 10.0154 24.7209 11.4551C25.0072 12.8948 25.7141 14.2172 26.752 15.2552C27.79 16.2931 29.1124 17 30.5521 17.2863C31.9918 17.5727 33.484 17.4257 34.8402 16.864C36.1963 16.3023 37.3554 15.351 38.171 14.1305C38.9865 12.91 39.4218 11.4751 39.4218 10.0072C39.4195 8.03952 38.6368 6.15308 37.2455 4.76172C35.8541 3.37036 33.9677 2.5877 32 2.58545Z" fill="black"/>
</g>
<defs>
<clipPath id="clip0_38_108">
<rect width="64" height="64" fill="white"/>
</clipPath>
</defs>
</svg>
