<svg width="64" height="64" viewBox="0 0 64 64" fill="none" xmlns="http://www.w3.org/2000/svg">
<g clip-path="url(#clip0_37_62)">
<path d="M35.875 0C34.8395 0 34 0.8395 34 1.875V28.25C34 29.2855 34.8395 30.125 35.875 30.125H62.125C63.1605 30.125 64 29.2855 64 28.25C64 12.7344 51.4091 0 35.875 0ZM37.75 26.375V3.82175C49.702 4.73987 59.2705 14.3604 60.1794 26.375H37.75Z" fill="black"/>
<path d="M39.349 59.7994L30.25 35.4116V9.5C30.25 8.4645 29.4105 7.625 28.375 7.625C12.9345 7.625 0 20.1434 0 35.75C0 51.2399 12.8091 64 28.375 64C31.772 64 35.0954 63.3978 38.2526 62.2098C39.2199 61.8459 39.7104 60.7677 39.349 59.7994ZM28.375 60.25C14.7968 60.25 3.75 49.2594 3.75 35.75C3.75 22.9339 13.7942 12.3961 26.5 11.445V35.75C26.5 35.9737 26.54 36.1957 26.6182 36.4055L35.1569 59.2909C32.9624 59.928 30.689 60.25 28.375 60.25Z" fill="black"/>
<path d="M62.1249 33.875H35.8749C35.2606 33.875 34.6851 34.176 34.3348 34.6808C33.9843 35.1855 33.9036 35.8297 34.1183 36.4055L43.3357 61.1104C43.6997 62.0856 44.7858 62.5736 45.7527 62.2098C56.6669 58.1036 63.9999 47.4703 63.9999 35.75C63.9999 34.7145 63.1604 33.875 62.1249 33.875ZM46.1659 57.9688L38.5757 37.6125H60.1776C59.4996 46.3984 54.1012 54.2489 46.1659 57.9688Z" fill="black"/>
</g>
<defs>
<clipPath id="clip0_37_62">
<rect width="64" height="64" fill="white"/>
</clipPath>
</defs>
</svg>
