<svg width="64" height="64" viewBox="0 0 64 64" fill="none" xmlns="http://www.w3.org/2000/svg">
<path d="M21.833 37.666C25.0545 37.666 27.666 35.0545 27.666 31.833C27.666 28.6115 25.0545 26 21.833 26C18.6115 26 16 28.6115 16 31.833C16 35.0545 18.6115 37.666 21.833 37.666Z" fill="black"/>
<path d="M40.1692 28.9108C40.6842 28.9108 41.1017 28.4933 41.1017 27.9784C41.1017 27.4634 40.6842 27.0459 40.1692 27.0459H38.1717C37.6567 27.0459 37.2393 27.4634 37.2393 27.9784V35.438C37.2393 35.953 37.6567 36.3704 38.1717 36.3704H40.1692C40.6842 36.3704 41.1017 35.953 41.1017 35.438C41.1017 34.923 40.6842 34.5055 40.1692 34.5055H39.1042V32.6406H40.1692C40.6842 32.6406 41.1017 32.2231 41.1017 31.7082C41.1017 31.1932 40.6842 30.7757 40.1692 30.7757H39.1042V28.9108H40.1692Z" fill="black"/>
<path d="M46.8954 34.7552C45.7573 34.7552 44.8315 33.8293 44.8315 32.6914V30.9746C44.8315 29.8366 45.7574 28.9108 46.8954 28.9108C47.4103 28.9108 47.8278 28.4933 47.8278 27.9784C47.8278 27.4634 47.4103 27.0459 46.8954 27.0459C44.729 27.0459 42.9666 28.8084 42.9666 30.9746V32.6914C42.9666 34.8577 44.7291 36.6201 46.8954 36.6201C47.4103 36.6201 47.8278 36.2026 47.8278 35.6876C47.8278 35.1727 47.4103 34.7552 46.8954 34.7552Z" fill="black"/>
<path d="M31.708 27.0459H30.4635C29.9485 27.0459 29.531 27.4634 29.531 27.9784V35.438C29.531 35.953 29.9485 36.3704 30.4635 36.3704C30.9784 36.3704 31.3959 35.953 31.3959 35.438V33.7506L33.5038 36.0658C33.6878 36.2679 33.9402 36.3704 34.1935 36.3704C34.4176 36.3704 34.6423 36.2902 34.8211 36.1275C35.2019 35.7808 35.2295 35.1911 34.8828 34.8103L33.4157 33.1989C33.6648 33.0599 33.8972 32.8901 34.1069 32.6905C34.7544 32.0756 35.1258 31.2199 35.1258 30.3427V30.3415C35.1257 28.5243 33.5925 27.0459 31.708 27.0459ZM31.3959 28.9108H31.708C32.5642 28.9108 33.2608 29.5526 33.2608 30.3415V30.3427C33.2608 30.7163 33.1052 31.0698 32.8218 31.3389C32.531 31.6157 32.1245 31.7745 31.7067 31.7745H31.3959V28.9108H31.3959Z" fill="black"/>
<rect x="5" y="5" width="54" height="54" rx="8" stroke="black" stroke-width="4"/>
</svg>
