<svg width="64" height="64" viewBox="0 0 64 64" fill="none" xmlns="http://www.w3.org/2000/svg">
<path d="M57.5796 10.3672C54.3643 9.2627 51.7886 6.67236 50.689 3.43799C49.9897 1.38135 48.0645 0 45.8975 0H17.9775C15.811 0 13.8853 1.38135 13.186 3.43799C12.0864 6.67236 9.51074 9.2627 6.29541 10.3672C4.24951 11.0703 2.875 13.0015 2.875 15.1729V22.2358C2.875 31.4526 5.63672 40.3271 10.8618 47.9004C15.6426 54.8296 22.2305 60.252 29.9141 63.582C30.5571 63.8608 31.2471 64 31.9375 64C32.6274 64 33.3174 63.8608 33.9604 63.582C41.644 60.2524 48.2319 54.8296 53.0127 47.9004C58.2378 40.3271 61 31.4521 61 22.2358V15.1729C61 13.0015 59.6255 11.0703 57.5796 10.3672ZM57.25 22.2358C57.25 30.688 54.7173 38.8262 49.9258 45.771C45.5444 52.1216 39.5078 57.0908 32.4692 60.1411C32.1318 60.2876 31.7437 60.2881 31.4053 60.1411C24.3662 57.0908 18.3301 52.1216 13.9487 45.771C9.15771 38.8267 6.625 30.6885 6.625 22.2358V15.1729C6.625 14.6025 6.98242 14.0967 7.51416 13.9141C11.8184 12.4351 15.2661 8.97021 16.7363 4.64502C16.9185 4.10986 17.417 3.75 17.9775 3.75H45.8975C46.4575 3.75 46.9565 4.10986 47.1387 4.64502C48.6089 8.97021 52.0566 12.4351 56.3608 13.9141C56.8926 14.0967 57.25 14.6025 57.25 15.1729V22.2358Z" fill="black"/>
<path d="M39.9048 24.3105H39.7773V18.9707C39.7773 14.6479 36.2603 11.1309 31.9375 11.1309C27.6147 11.1309 24.0977 14.6479 24.0977 18.9707V24.3105H23.9702C21.4805 24.3105 19.4551 26.3364 19.4551 28.8262V39.6172C19.4551 44.2539 23.2275 48.0269 27.8638 48.0269H36.0112C40.6479 48.0269 44.4199 44.2539 44.4199 39.6172V28.8262C44.4199 26.3364 42.3945 24.3105 39.9048 24.3105ZM27.8477 18.9707C27.8477 16.7158 29.6826 14.8809 31.9375 14.8809C34.1924 14.8809 36.0273 16.7158 36.0273 18.9707V24.311H27.8477V18.9707ZM40.6699 39.6172C40.6699 42.1865 38.5801 44.2764 36.0112 44.2764H27.8638C25.2949 44.2764 23.2051 42.1865 23.2051 39.6172V28.8262C23.2051 28.4043 23.5483 28.061 23.9702 28.061H39.9048C40.3267 28.061 40.6699 28.4043 40.6699 28.8262V39.6172Z" fill="black"/>
<path d="M31.9375 32.5225C30.9019 32.5225 30.0625 33.3618 30.0625 34.3975V37.9399C30.0625 38.9756 30.9019 39.8149 31.9375 39.8149C32.9731 39.8149 33.8125 38.9756 33.8125 37.9399V34.3975C33.8125 33.3618 32.9731 32.5225 31.9375 32.5225Z" fill="black"/>
</svg>
