<svg width="64" height="64" viewBox="0 0 64 64" fill="none" xmlns="http://www.w3.org/2000/svg">
<g clip-path="url(#clip0_37_42)">
<path d="M32.3984 0C24.7685 0.000143465 17.3962 2.76063 11.6426 7.77183C5.88899 12.783 2.14259 19.7066 1.09503 27.2642C0.224151 33.6645 1.3183 40.1784 4.23253 45.9429L0.0681522 61.4823C-0.0228664 61.8214 -0.0229631 62.1786 0.0678719 62.5179C0.158707 62.8571 0.33727 63.1665 0.585603 63.4148C0.833936 63.6631 1.14328 63.8417 1.48253 63.9325C1.82177 64.0234 2.17896 64.0233 2.51815 63.9323L18.0575 59.7685C23.8221 62.6826 30.3359 63.7767 36.7362 62.906C44.2939 61.8583 51.2175 58.1118 56.2287 52.358C61.2398 46.6042 64.0001 39.2317 64 31.6016C63.9999 23.2204 60.6704 15.1824 54.744 9.25601C48.8176 3.32958 40.7796 9.94541e-05 32.3984 0V0ZM51.9157 51.1191C46.6319 56.403 39.5085 59.1745 32.325 59.174C27.7594 59.1809 23.2643 58.0472 19.248 55.8759C18.7981 55.6317 18.2716 55.5695 17.7772 55.702L4.8284 59.1716L8.29803 46.2229C8.43044 45.7284 8.36821 45.202 8.12415 44.752C2.34603 34.0966 4.3019 20.6634 12.8809 12.0844C23.6427 1.3225 41.1535 1.32188 51.9157 12.0844C62.6778 22.8469 62.6775 40.3571 51.9157 51.1191ZM47.8825 22.0845C47.4626 21.8388 46.9848 21.7092 46.4983 21.7092C46.0117 21.7092 45.534 21.8388 45.114 22.0845L41.7914 24.0029C41.4961 22.8414 40.8225 21.8113 39.8769 21.075C38.9313 20.3387 37.7675 19.9382 36.569 19.9366H20.119C18.6909 19.9382 17.3217 20.5063 16.3119 21.5162C15.302 22.526 14.734 23.8952 14.7324 25.3234V38.6765C14.734 40.1046 15.302 41.4738 16.3119 42.4837C17.3217 43.4935 18.6909 44.0615 20.119 44.0631H36.569C37.7674 44.0615 38.9312 43.661 39.8768 42.9248C40.8224 42.1885 41.496 41.1585 41.7914 39.997L45.1139 41.9152C45.5348 42.1583 46.0122 42.2863 46.4982 42.2863C46.9843 42.2863 47.4617 42.1584 47.8826 41.9154C48.3035 41.6724 48.6531 41.3229 48.8961 40.902C49.1391 40.4811 49.267 40.0036 49.267 39.5176V24.4823C49.2699 23.9957 49.1431 23.5171 48.8998 23.0957C48.6565 22.6743 48.3054 22.3253 47.8825 22.0845ZM37.9558 38.6765C37.9553 39.0441 37.8091 39.3966 37.5491 39.6565C37.2891 39.9165 36.9367 40.0627 36.569 40.0631H20.119C19.7514 40.0627 19.399 39.9165 19.139 39.6565C18.8791 39.3966 18.7328 39.0441 18.7324 38.6765V25.3235C18.7328 24.9559 18.8791 24.6034 19.139 24.3434C19.3989 24.0835 19.7514 23.9372 20.119 23.9368H36.569C36.9367 23.9372 37.2892 24.0834 37.5491 24.3434C37.8091 24.6034 37.9553 24.9558 37.9558 25.3235V38.6765ZM45.267 37.3848L41.9558 35.473V28.527L45.267 26.6145V37.3848Z" fill="black"/>
</g>
<defs>
<clipPath id="clip0_37_42">
<rect width="64" height="64" fill="white"/>
</clipPath>
</defs>
</svg>
