<svg width="33" height="17" viewBox="0 0 33 17" fill="none" xmlns="http://www.w3.org/2000/svg">
<path d="M31.1852 10.5242L25.4913 14.5187C24.2827 15.3666 22.5939 15.0846 21.7412 13.8925L20.1849 11.7166C19.2452 10.4028 17.3229 10.2184 16.1418 11.3288L14.4995 12.8727C13.3386 13.9641 11.455 13.8075 10.497 12.5401L8.96802 10.517C7.99221 9.22595 6.06266 9.09208 4.91257 10.2357L1.32066 13.8073" stroke="#D0412E" stroke-width="3"/>
<path d="M31.9985 3.01341L26.3485 6.59281C25.1492 7.3526 23.4593 7.08054 22.5959 5.98868L21.0202 3.99583C20.0687 2.79251 18.1466 2.60705 16.9773 3.60575L15.3514 4.99443C14.2021 5.97604 12.3188 5.81628 11.3496 4.65497L9.80254 2.80131C8.81525 1.61833 6.88627 1.47875 5.74828 2.50795L2.19416 5.7223" stroke="#D0412E" stroke-width="3"/>
</svg>
