<svg width="24" height="25" viewBox="0 0 24 25" fill="none" xmlns="http://www.w3.org/2000/svg">
<g clip-path="url(#clip0_37_37)">
<path fill-rule="evenodd" clip-rule="evenodd" d="M0 12.4034C0 18.3699 4.33333 23.3308 10 24.3364V15.6697H7V12.3364H10V9.66975C10 6.66975 11.9333 5.00309 14.6667 5.00309C15.5333 5.00309 16.4667 5.13642 17.3333 5.26975V8.33642H15.8C14.3333 8.33642 14 9.06975 14 10.0031V12.3364H17.2L16.6667 15.6697H14V24.3364C19.6667 23.3308 24 18.3699 24 12.4034C24 5.7666 18.6 0.336426 12 0.336426C5.4 0.336426 0 5.7666 0 12.4034Z" fill="#82919A"/>
</g>
<defs>
<clipPath id="clip0_37_37">
<rect width="24" height="24" fill="white" transform="translate(0 0.336426)"/>
</clipPath>
</defs>
</svg>
