<svg width="24" height="25" viewBox="0 0 24 25" fill="none" xmlns="http://www.w3.org/2000/svg">
<path fill-rule="evenodd" clip-rule="evenodd" d="M7.46494 1.40243C8.63828 1.34865 9.01228 1.33643 12 1.33643C14.9883 1.33643 15.3617 1.34926 16.5344 1.40243C17.7059 1.4556 18.5059 1.64199 19.2056 1.91393C19.9395 2.19024 20.6043 2.62317 21.1538 3.1826C21.7133 3.73203 22.1463 4.39689 22.4225 5.13082C22.6944 5.83054 22.8802 6.63049 22.934 7.80137C22.9878 8.97471 23 9.34871 23 12.3364C23 15.3241 22.9872 15.6981 22.934 16.8715C22.8808 18.0423 22.6944 18.8423 22.4225 19.542C22.1414 20.265 21.7649 20.8791 21.1538 21.4902C20.6044 22.0497 19.9395 22.4827 19.2056 22.7589C18.5059 23.0308 17.7059 23.2166 16.5351 23.2704C15.3617 23.3242 14.9877 23.3364 12 23.3364C9.01228 23.3364 8.63828 23.3236 7.46494 23.2704C6.29406 23.2172 5.49411 23.0308 4.79439 22.7589C4.07144 22.4778 3.45728 22.1013 2.84617 21.4902C2.28664 20.9408 1.85368 20.2759 1.5775 19.542C1.30556 18.8423 1.11978 18.0423 1.066 16.8715C1.01222 15.6981 1 15.3247 1 12.3364C1 9.3481 1.01283 8.97471 1.066 7.80199C1.11917 6.63049 1.30556 5.83054 1.5775 5.13082C1.85381 4.39694 2.28674 3.73211 2.84617 3.1826C3.39559 2.62307 4.06045 2.19011 4.79439 1.91393C5.49411 1.64199 6.29406 1.45621 7.46494 1.40243ZM16.4452 3.38243C15.2853 3.32987 14.937 3.31826 12 3.31826C9.063 3.31826 8.71467 3.32987 7.55478 3.38243C6.48228 3.43132 5.89989 3.61037 5.51244 3.76132C4.99911 3.96054 4.63244 4.19887 4.24744 4.58387C3.86306 4.96887 3.62411 5.33554 3.42489 5.84887C3.27394 6.23632 3.09489 6.81871 3.046 7.89121C2.99344 9.0511 2.98183 9.39943 2.98183 12.3364C2.98183 15.2734 2.99344 15.6217 3.046 16.7816C3.09489 17.8541 3.27394 18.4365 3.42489 18.824C3.60111 19.3018 3.88219 19.734 4.24744 20.089C4.60234 20.4542 5.03461 20.7353 5.51244 20.9115C5.89989 21.0625 6.48228 21.2415 7.55478 21.2904C8.71467 21.343 9.06239 21.3546 12 21.3546C14.9376 21.3546 15.2853 21.343 16.4452 21.2904C17.5177 21.2415 18.1001 21.0625 18.4876 20.9115C19.0009 20.7123 19.3676 20.474 19.7526 20.089C20.1178 19.7341 20.3989 19.3018 20.5751 18.824C20.7261 18.4365 20.9051 17.8541 20.954 16.7816C21.0066 15.6217 21.0182 15.2734 21.0182 12.3364C21.0182 9.39943 21.0066 9.0511 20.954 7.89121C20.9051 6.81871 20.7261 6.23632 20.5751 5.84887C20.3759 5.33554 20.1376 4.96887 19.7526 4.58387C19.3676 4.19949 19.0009 3.96054 18.4876 3.76132C18.1001 3.61037 17.5177 3.43132 16.4452 3.38243ZM10.5955 15.7273C11.0408 15.9118 11.518 16.0067 12 16.0067C12.9735 16.0067 13.907 15.62 14.5953 14.9317C15.2837 14.2434 15.6704 13.3098 15.6704 12.3364C15.6704 11.363 15.2837 10.4294 14.5953 9.74111C13.907 9.05279 12.9735 8.66609 12 8.66609C11.518 8.66609 11.0408 8.76103 10.5955 8.94548C10.1501 9.12993 9.74553 9.40028 9.40471 9.74111C9.06389 10.0819 8.79353 10.4865 8.60908 10.9318C8.42463 11.3771 8.3297 11.8544 8.3297 12.3364C8.3297 12.8184 8.42463 13.2957 8.60908 13.741C8.79353 14.1863 9.06389 14.5909 9.40471 14.9317C9.74553 15.2725 10.1501 15.5429 10.5955 15.7273ZM8.00205 8.33844C9.06238 7.27811 10.5005 6.68242 12 6.68242C13.4996 6.68242 14.9377 7.27811 15.998 8.33844C17.0583 9.39877 17.654 10.8369 17.654 12.3364C17.654 13.8359 17.0583 15.274 15.998 16.3344C14.9377 17.3947 13.4996 17.9904 12 17.9904C10.5005 17.9904 9.06238 17.3947 8.00205 16.3344C6.94172 15.274 6.34603 13.8359 6.34603 12.3364C6.34603 10.8369 6.94172 9.39877 8.00205 8.33844ZM18.9077 7.52481C19.1583 7.27416 19.2991 6.93422 19.2991 6.57976C19.2991 6.22529 19.1583 5.88535 18.9077 5.63471C18.657 5.38407 18.3171 5.24326 17.9626 5.24326C17.6082 5.24326 17.2682 5.38407 17.0176 5.63471C16.7669 5.88535 16.6261 6.22529 16.6261 6.57976C16.6261 6.93422 16.7669 7.27416 17.0176 7.52481C17.2682 7.77545 17.6082 7.91626 17.9626 7.91626C18.3171 7.91626 18.657 7.77545 18.9077 7.52481Z" fill="#82919A"/>
</svg>
