<svg width="20" height="24" viewBox="0 0 20 24" fill="none" xmlns="http://www.w3.org/2000/svg">
<path d="M14.2383 0.749023L10.49 0.750115V16.2245C10.49 17.5567 9.69474 18.745 8.46398 19.2548C7.23323 19.7646 5.832 19.4854 4.89002 18.5434C3.94804 17.6015 3.66887 16.1988 4.17867 14.968C4.68846 13.7372 5.8768 12.9438 7.20896 12.9438H8.42115V9.19518H7.20896C4.37125 9.19518 1.80121 10.913 0.715266 13.5347C-0.370679 16.1564 0.232086 19.1882 2.23865 21.1948C4.24521 23.2014 7.27743 23.8041 9.89914 22.7182C12.5208 21.6322 14.2383 19.0622 14.2383 16.2245V7.64397C15.2588 8.25201 16.4643 8.69837 17.947 8.69837H19.8204V4.94867H17.947C15.839 4.94867 15.2674 4.09127 14.7669 3.00316C14.2669 1.91609 14.2383 0.749023 14.2383 0.749023Z" fill="#122052"/>
</svg>
