<svg width="22" height="18" viewBox="0 0 22 18" fill="none" xmlns="http://www.w3.org/2000/svg">
<path d="M21.3683 2.37727C20.6017 2.71805 19.7766 2.94792 18.9109 3.05079C19.7948 2.52162 20.4725 1.68342 20.7922 0.683513C19.9654 1.17416 19.0501 1.53018 18.0752 1.72237C17.295 0.890946 16.1829 0.371094 14.9523 0.371094C12.5897 0.371094 10.6741 2.28667 10.6741 4.64972C10.6741 4.98457 10.7118 5.31096 10.785 5.62465C7.229 5.44601 4.07602 3.74294 1.9657 1.15426C1.5974 1.78587 1.38658 2.52078 1.38658 3.30564C1.38658 4.78984 2.14181 6.09963 3.28989 6.86671C2.58885 6.84427 1.92887 6.65166 1.35187 6.33119C1.35145 6.34897 1.35145 6.36718 1.35145 6.38538C1.35145 8.45802 2.82634 10.1869 4.78383 10.5806C4.42484 10.678 4.04681 10.7305 3.65649 10.7305C3.38048 10.7305 3.11251 10.7038 2.85131 10.6534C3.39614 12.3531 4.97602 13.5905 6.848 13.6248C5.38369 14.7724 3.53923 15.4566 1.53433 15.4566C1.18931 15.4566 0.848528 15.4362 0.513672 15.3964C2.40766 16.611 4.65641 17.3188 7.07236 17.3188C14.9425 17.3188 19.2457 10.7995 19.2457 5.14544C19.2457 4.96002 19.2419 4.77502 19.2339 4.5913C20.0695 3.98932 20.7951 3.23536 21.3683 2.37727Z" fill="#122052"/>
</svg>
