<svg width="32" height="32" viewBox="0 0 32 32" fill="none" xmlns="http://www.w3.org/2000/svg">
<path d="M19.9735 9.36388V4.03054C19.9735 3.67692 20.114 3.33778 20.3641 3.08774C20.6141 2.83769 20.9532 2.69721 21.3069 2.69721C21.6605 2.69721 21.9996 2.83769 22.2497 3.08774C22.4997 3.33778 22.6402 3.67692 22.6402 4.03054V7.51188C23.4802 6.66654 28.9082 1.21054 29.6975 0.421211C29.8205 0.293864 29.9677 0.192288 30.1303 0.122409C30.293 0.0525306 30.468 0.0157489 30.645 0.0142105C30.822 0.0126721 30.9976 0.0464077 31.1615 0.113449C31.3253 0.18049 31.4742 0.279494 31.5994 0.404684C31.7246 0.529875 31.8236 0.678744 31.8906 0.842606C31.9577 1.00647 31.9914 1.18204 31.9899 1.35908C31.9883 1.53612 31.9516 1.71108 31.8817 1.87375C31.8118 2.03642 31.7102 2.18355 31.5829 2.30654C30.7935 3.09588 25.3935 8.52654 24.5589 9.36388H27.9735C28.3272 9.36388 28.6663 9.50435 28.9163 9.7544C29.1664 10.0045 29.3069 10.3436 29.3069 10.6972C29.3069 11.0508 29.1664 11.39 28.9163 11.64C28.6663 11.8901 28.3272 12.0305 27.9735 12.0305H22.6402C21.933 12.0305 21.2547 11.7496 20.7546 11.2495C20.2545 10.7494 19.9735 10.0711 19.9735 9.36388ZM30.7669 22.3492C31.5396 23.124 31.9735 24.1736 31.9735 25.2679C31.9735 26.3621 31.5396 27.4117 30.7669 28.1865L29.5509 29.5865C18.6295 40.0372 -7.94113 13.4745 2.35087 2.51988L3.8842 1.18654C4.65972 0.435272 5.69984 0.0195296 6.77953 0.0292611C7.85923 0.0389925 8.89169 0.473415 9.65354 1.23854C9.69487 1.27854 12.1642 4.48921 12.1642 4.48921C12.8948 5.2606 13.3013 6.28305 13.2998 7.34548C13.2983 8.4079 12.8889 9.42921 12.1562 10.1985L10.6122 12.1399C11.4669 14.2159 12.7232 16.1027 14.3091 17.6918C15.895 19.2809 17.7792 20.541 19.8535 21.3999L21.8069 19.8465C22.5747 19.1119 23.5959 18.7012 24.6586 18.6997C25.7213 18.6982 26.7437 19.106 27.5135 19.8385C27.5135 19.8385 30.7255 22.3092 30.7669 22.3492V22.3492ZM28.9335 24.2879C28.9335 24.2879 25.7429 21.8319 25.7015 21.7919C25.4268 21.5195 25.0557 21.3667 24.6689 21.3667C24.282 21.3667 23.9109 21.5195 23.6362 21.7919C23.6002 21.8265 20.9109 23.9705 20.9109 23.9705C20.7296 24.1148 20.514 24.2094 20.2851 24.2449C20.0562 24.2804 19.822 24.2557 19.6055 24.1732C16.9168 23.1729 14.4745 21.6061 12.4443 19.5791C10.4141 17.5522 8.8435 15.1124 7.83887 12.4252C7.7498 12.2058 7.72076 11.9667 7.75474 11.7323C7.78872 11.498 7.88449 11.2769 8.0322 11.0919C8.0322 11.0919 10.1762 8.40654 10.2122 8.37188C10.4846 8.09719 10.6374 7.72603 10.6374 7.33921C10.6374 6.95239 10.4846 6.58123 10.2122 6.30654C10.1722 6.26654 7.7162 3.07321 7.7162 3.07321C7.4374 2.82322 7.07354 2.68934 6.6992 2.69901C6.32486 2.70868 5.96839 2.86116 5.70287 3.12521L4.16954 4.45854C-3.35313 13.5025 19.6762 35.2545 27.6002 27.7692L28.8162 26.3679C29.1029 26.1048 29.2756 25.7402 29.2975 25.3517C29.3194 24.9632 29.1888 24.5815 28.9335 24.2879V24.2879Z" fill="white"/>
</svg>
