<svg width="32" height="32" viewBox="0 0 32 32" fill="none" xmlns="http://www.w3.org/2000/svg">
<g clip-path="url(#clip0_44_89)">
<path d="M16.0001 8C14.9453 8 13.9142 8.31279 13.0371 8.89883C12.16 9.48486 11.4765 10.3178 11.0728 11.2924C10.6691 12.2669 10.5635 13.3392 10.7693 14.3738C10.9751 15.4084 11.483 16.3587 12.2289 17.1046C12.9748 17.8505 13.9251 18.3584 14.9597 18.5642C15.9942 18.77 17.0666 18.6644 18.0411 18.2607C19.0157 17.857 19.8486 17.1734 20.4346 16.2964C21.0207 15.4193 21.3335 14.3882 21.3335 13.3333C21.3335 11.9188 20.7716 10.5623 19.7714 9.5621C18.7712 8.5619 17.4146 8 16.0001 8ZM16.0001 16C15.4727 16 14.9572 15.8436 14.5186 15.5506C14.0801 15.2576 13.7383 14.8411 13.5365 14.3538C13.3346 13.8666 13.2818 13.3304 13.3847 12.8131C13.4876 12.2958 13.7416 11.8207 14.1145 11.4477C14.4875 11.0748 14.9626 10.8208 15.4799 10.7179C15.9972 10.615 16.5334 10.6678 17.0206 10.8697C17.5079 11.0715 17.9244 11.4133 18.2174 11.8518C18.5104 12.2903 18.6668 12.8059 18.6668 13.3333C18.6668 14.0406 18.3859 14.7189 17.8858 15.219C17.3857 15.719 16.7074 16 16.0001 16Z" fill="white"/>
<path d="M15.9999 32.0002C14.8772 32.006 13.7694 31.7426 12.7693 31.2323C11.7693 30.7219 10.9061 29.9794 10.2519 29.0669C5.17059 22.0576 2.59326 16.7882 2.59326 13.4042C2.59326 9.84856 4.00575 6.43852 6.51998 3.92428C9.03422 1.41004 12.4443 -0.00244141 15.9999 -0.00244141C19.5556 -0.00244141 22.9656 1.41004 25.4799 3.92428C27.9941 6.43852 29.4066 9.84856 29.4066 13.4042C29.4066 16.7882 26.8293 22.0576 21.7479 29.0669C21.0938 29.9794 20.2306 30.7219 19.2305 31.2323C18.2304 31.7426 17.1227 32.006 15.9999 32.0002V32.0002ZM15.9999 2.90823C13.2165 2.9114 10.548 4.01853 8.57976 5.98672C6.61156 7.95492 5.50444 10.6234 5.50126 13.4069C5.50126 16.0869 8.02526 21.0429 12.6066 27.3616C12.9955 27.8973 13.5058 28.3333 14.0955 28.6339C14.6853 28.9346 15.3379 29.0913 15.9999 29.0913C16.6619 29.0913 17.3145 28.9346 17.9043 28.6339C18.4941 28.3333 19.0043 27.8973 19.3933 27.3616C23.9746 21.0429 26.4986 16.0869 26.4986 13.4069C26.4954 10.6234 25.3883 7.95492 23.4201 5.98672C21.4519 4.01853 18.7834 2.9114 15.9999 2.90823V2.90823Z" fill="white"/>
</g>
<defs>
<clipPath id="clip0_44_89">
<rect width="32" height="32" fill="white"/>
</clipPath>
</defs>
</svg>
