<svg width="32" height="32" viewBox="0 0 32 32" fill="none" xmlns="http://www.w3.org/2000/svg">
<g clip-path="url(#clip0_44_88)">
<path d="M25.3333 1.33301H6.66667C4.89921 1.33512 3.20474 2.03818 1.95496 3.28797C0.705176 4.53775 0.00211714 6.23221 0 7.99967L0 23.9997C0.00211714 25.7671 0.705176 27.4616 1.95496 28.7114C3.20474 29.9612 4.89921 30.6642 6.66667 30.6663H25.3333C27.1008 30.6642 28.7953 29.9612 30.045 28.7114C31.2948 27.4616 31.9979 25.7671 32 23.9997V7.99967C31.9979 6.23221 31.2948 4.53775 30.045 3.28797C28.7953 2.03818 27.1008 1.33512 25.3333 1.33301V1.33301ZM6.66667 3.99967H25.3333C26.1317 4.00124 26.9114 4.24169 27.5719 4.69008C28.2325 5.13847 28.7438 5.77427 29.04 6.51567L18.8293 16.7277C18.0779 17.4761 17.0606 17.8963 16 17.8963C14.9394 17.8963 13.9221 17.4761 13.1707 16.7277L2.96 6.51567C3.2562 5.77427 3.76748 5.13847 4.42806 4.69008C5.08864 4.24169 5.86829 4.00124 6.66667 3.99967V3.99967ZM25.3333 27.9997H6.66667C5.6058 27.9997 4.58839 27.5782 3.83824 26.8281C3.08809 26.078 2.66667 25.0605 2.66667 23.9997V9.99967L11.2853 18.613C12.5368 19.8613 14.2323 20.5624 16 20.5624C17.7677 20.5624 19.4632 19.8613 20.7147 18.613L29.3333 9.99967V23.9997C29.3333 25.0605 28.9119 26.078 28.1618 26.8281C27.4116 27.5782 26.3942 27.9997 25.3333 27.9997Z" fill="white"/>
</g>
<defs>
<clipPath id="clip0_44_88">
<rect width="32" height="32" fill="white"/>
</clipPath>
</defs>
</svg>
