<svg width="32" height="30" viewBox="0 0 32 30" fill="none" xmlns="http://www.w3.org/2000/svg">
<path d="M25.3333 0.333008H6.66667C4.89921 0.335125 3.20474 1.03818 1.95496 2.28797C0.705176 3.53775 0.00211714 5.23221 0 6.99967L0 22.9997C0.00211714 24.7671 0.705176 26.4616 1.95496 27.7114C3.20474 28.9612 4.89921 29.6642 6.66667 29.6663H25.3333C27.1008 29.6642 28.7953 28.9612 30.045 27.7114C31.2948 26.4616 31.9979 24.7671 32 22.9997V6.99967C31.9979 5.23221 31.2948 3.53775 30.045 2.28797C28.7953 1.03818 27.1008 0.335125 25.3333 0.333008V0.333008ZM6.66667 2.99967H25.3333C26.1317 3.00124 26.9114 3.24169 27.5719 3.69008C28.2325 4.13847 28.7438 4.77427 29.04 5.51567L18.8293 15.7277C18.0779 16.4761 17.0606 16.8963 16 16.8963C14.9394 16.8963 13.9221 16.4761 13.1707 15.7277L2.96 5.51567C3.2562 4.77427 3.76748 4.13847 4.42806 3.69008C5.08864 3.24169 5.86829 3.00124 6.66667 2.99967V2.99967ZM25.3333 26.9997H6.66667C5.6058 26.9997 4.58839 26.5782 3.83824 25.8281C3.08809 25.078 2.66667 24.0605 2.66667 22.9997V8.99967L11.2853 17.613C12.5368 18.8613 14.2323 19.5624 16 19.5624C17.7677 19.5624 19.4632 18.8613 20.7147 17.613L29.3333 8.99967V22.9997C29.3333 24.0605 28.9119 25.078 28.1618 25.8281C27.4116 26.5782 26.3942 26.9997 25.3333 26.9997Z" fill="white"/>
</svg>
